<svg xmlns="http://www.w3.org/2000/svg" width="86" height="86" fill="none"><g clip-path="url(#a)"><path fill="#563D7C" d="M.025 74.94c0 6.065 4.917 10.98 10.982 10.98h63.202c6.065 0 10.98-4.916 10.98-10.98V11.738C85.19 5.672 80.274.756 74.21.756H11.006C4.942.756.027 5.673.027 11.738V74.94Z"/><path fill="#fff" d="M35.34 38.428v-12.06h10.617c1.01 0 1.986.083 2.924.252.94.168 1.77.47 2.492.903a4.808 4.808 0 0 1 1.733 1.805c.434.77.65 1.757.65 2.961 0 2.167-.65 3.731-1.95 4.694-1.3.963-2.96 1.445-4.983 1.445H35.34ZM24.002 17.556v51.565H48.99c2.31 0 4.562-.289 6.752-.867 2.19-.578 4.14-1.468 5.85-2.672 1.71-1.204 3.07-2.756 4.08-4.658 1.011-1.902 1.517-4.153 1.517-6.752 0-3.226-.782-5.983-2.347-8.27s-3.936-3.887-7.114-4.802c2.311-1.108 4.057-2.528 5.236-4.261 1.18-1.733 1.77-3.9 1.77-6.5 0-2.407-.398-4.43-1.192-6.066-.794-1.637-1.914-2.95-3.358-3.936-1.445-.987-3.178-1.697-5.2-2.13-2.022-.434-4.261-.65-6.716-.65H24.002ZM35.34 60.31V46.155h12.35c2.455 0 4.43.566 5.922 1.697 1.492 1.132 2.239 3.022 2.239 5.67 0 1.348-.23 2.455-.687 3.322-.457.866-1.07 1.552-1.841 2.058-.77.505-1.661.867-2.672 1.083-1.011.217-2.07.325-3.178.325H35.34Z"/></g><defs><clipPath id="a"><path fill="#fff" d="M.023.756h85.165v85.165H.023z"/></clipPath></defs></svg>
