<svg xmlns="http://www.w3.org/2000/svg" width="86" height="86" fill="none"><path fill="#EE513B" d="M7.01 47.1a5.32 5.32 0 0 1 0-7.522l31.94-31.94a5.32 5.32 0 0 1 7.523 0l31.94 31.94a5.319 5.319 0 0 1 0 7.522l-31.94 31.94a5.319 5.319 0 0 1-7.523 0L7.01 47.1Z"/><path fill="#fff" d="m32.463 14.227-3.235 3.235 8.354 8.353a5.657 5.657 0 0 0 3.133 7.68V53.93a5.657 5.657 0 0 0 1.996 10.949 5.655 5.655 0 0 0 2.578-10.69V33.523l7.986 7.985a5.655 5.655 0 1 0 3.415-3.054l-8.576-8.576a5.655 5.655 0 0 0-7.08-7.08l-8.571-8.57Z"/></svg>
