<svg xmlns="http://www.w3.org/2000/svg" width="92" height="92" fill="none"><path fill="#FFD600" d="M.58 91.76V.917H91.42V91.76H.58Z"/><path fill="#000001" d="M59.974 68.916c1.746 2.836 3.644 5.553 7.663 5.553 3.376 0 5.148-1.677 5.148-3.999 0-2.778-1.832-3.765-5.546-5.382l-2.037-.868c-5.877-2.494-9.786-5.617-9.786-12.216 0-6.082 4.656-10.71 11.931-10.71 5.18 0 8.903 1.795 11.587 6.493l-6.343 4.055c-1.396-2.493-2.905-3.474-5.244-3.474-2.387 0-3.899 1.506-3.899 3.474 0 2.433 1.514 3.417 5.01 4.923l2.036.868c6.926 2.95 10.833 5.963 10.833 12.736 0 7.298-5.764 11.297-13.5 11.297-7.568 0-11.865-3.797-14.258-8.498l6.405-4.252Zm-29.236.207c1.276 2.286 3.217 4.044 6.008 4.044 2.67 0 4.206-1.054 4.206-5.155v-26.72h8.41v28.012c0 8.496-4.927 12.362-12.124 12.362-6.503 0-11.196-4.406-13.11-8.498l6.61-4.046Z"/></svg>
