<svg xmlns="http://www.w3.org/2000/svg" width="100" height="92" fill="none"><g clip-path="url(#a)"><path fill="#087EA4" d="M50.45 55.952c5.212 0 9.438-4.304 9.438-9.613 0-5.31-4.226-9.613-9.438-9.613-5.213 0-9.438 4.304-9.438 9.613 0 5.309 4.225 9.613 9.438 9.613Z"/><path stroke="#087EA4" stroke-width="4.258" d="M50.45 67.968c26.062 0 47.19-9.684 47.19-21.63 0-11.945-21.128-21.629-47.19-21.629-26.063 0-47.191 9.684-47.191 21.63 0 11.945 21.128 21.629 47.19 21.629Z"/><path stroke="#087EA4" stroke-width="4.258" d="M32.059 57.153c13.031 22.989 31.83 36.783 41.986 30.81 10.157-5.972 7.827-29.45-5.204-52.439C55.809 12.535 37.01-1.259 26.854 4.714c-10.157 5.972-7.826 29.45 5.205 52.439Z"/><path stroke="#087EA4" stroke-width="4.258" d="M32.06 35.524c-13.032 22.989-15.362 46.467-5.205 52.44 10.157 5.972 28.955-7.822 41.986-30.811 13.032-22.99 15.362-46.467 5.205-52.44C63.889-1.26 45.09 12.535 32.06 35.523Z"/></g><defs><clipPath id="a"><path fill="#fff" d="M.9.917H100V91.76H.9z"/></clipPath></defs></svg>
