<svg xmlns="http://www.w3.org/2000/svg" width="86" height="86" fill="none"><path fill="#3178C6" d="M76.749 6.08H9.213A3.492 3.492 0 0 0 5.722 9.57v67.535a3.492 3.492 0 0 0 3.491 3.492H76.75a3.492 3.492 0 0 0 3.492-3.492V9.571a3.492 3.492 0 0 0-3.492-3.492Z"/><path fill="#fff" fill-rule="evenodd" d="M48.957 63.988v8.165a17.275 17.275 0 0 0 4.694 1.53c1.884.348 3.796.52 5.712.512 1.867.009 3.73-.18 5.557-.562a13.6 13.6 0 0 0 4.617-1.863 9.427 9.427 0 0 0 3.143-3.37 11.894 11.894 0 0 0 .495-9.032 9.074 9.074 0 0 0-1.908-2.973 13.938 13.938 0 0 0-2.989-2.334 32.022 32.022 0 0 0-3.93-1.953 51.18 51.18 0 0 1-2.875-1.288 14.618 14.618 0 0 1-2.163-1.275c-.536-.375-1-.842-1.374-1.379a2.903 2.903 0 0 1-.481-1.644 2.766 2.766 0 0 1 .43-1.52 3.725 3.725 0 0 1 1.222-1.16 6.49 6.49 0 0 1 1.933-.754 11.208 11.208 0 0 1 2.544-.266c.72.003 1.438.054 2.15.155a16.735 16.735 0 0 1 4.503 1.27c.7.31 1.369.687 1.999 1.122v-7.62a19.985 19.985 0 0 0-4.059-1.064 33.07 33.07 0 0 0-5.056-.343c-1.85-.01-3.694.2-5.493.625a13.943 13.943 0 0 0-4.567 1.951 9.728 9.728 0 0 0-3.117 3.383 9.929 9.929 0 0 0-1.147 4.91 9.549 9.549 0 0 0 2.1 6.227 15.969 15.969 0 0 0 6.374 4.363c1.118.46 2.16.912 3.127 1.354.873.388 1.711.849 2.507 1.376a6.555 6.555 0 0 1 1.666 1.557c.405.555.62 1.227.612 1.914a2.927 2.927 0 0 1-.383 1.469c-.283.48-.68.884-1.158 1.173a6.338 6.338 0 0 1-1.932.777c-.889.2-1.798.293-2.71.28a15.364 15.364 0 0 1-5.24-.932 15.63 15.63 0 0 1-4.803-2.78ZM35.24 43.661h10.646v-6.726H16.203v6.726h10.598v29.95h8.439v-29.95Z" clip-rule="evenodd"/></svg>
