<svg width="550" height="504" viewBox="0 0 550 504" fill="none" xmlns="http://www.w3.org/2000/svg">
    <rect x="105" y="157" width="445" height="272" rx="10" fill="#2B2CFF" fill-opacity="0.53"/>
    <g filter="url(#filter0_b_533_321)">
        <rect x="14" width="250" height="244" rx="12.7059" fill="url(#paint0_linear_533_321)"/>
        <rect x="14.5" y="0.5" width="249" height="243" rx="12.2059" stroke="url(#paint1_linear_533_321)"/>
    </g>
    <rect x="30.3819" y="18.938" width="34.4118" height="203.626" rx="5.02941" stroke="#555252" stroke-width="0.529412"/>
    <path d="M51.4695 81.0542C52.5416 81.0542 53.4107 80.1814 53.4107 79.1048C53.4107 78.0282 52.5416 77.1554 51.4695 77.1554C50.3974 77.1554 49.5283 78.0282 49.5283 79.1048C49.5283 80.1814 50.3974 81.0542 51.4695 81.0542Z" stroke="white" stroke-width="0.847059" stroke-linecap="round" stroke-linejoin="round"/>
    <path d="M43.7048 85.6028C44.7769 85.6028 45.646 84.73 45.646 83.6534C45.646 82.5768 44.7769 81.704 43.7048 81.704C42.6328 81.704 41.7637 82.5768 41.7637 83.6534C41.7637 84.73 42.6328 85.6028 43.7048 85.6028Z" stroke="white" stroke-width="0.847059" stroke-linecap="round" stroke-linejoin="round"/>
    <path d="M51.4695 90.1514C52.5416 90.1514 53.4107 89.2786 53.4107 88.202C53.4107 87.1253 52.5416 86.2526 51.4695 86.2526C50.3974 86.2526 49.5283 87.1253 49.5283 88.202C49.5283 89.2786 50.3974 90.1514 51.4695 90.1514Z" stroke="white" stroke-width="0.847059" stroke-linecap="round" stroke-linejoin="round"/>
    <path d="M45.3809 84.6346L49.8003 87.2208" stroke="white" stroke-width="0.847059" stroke-linecap="round" stroke-linejoin="round"/>
    <path d="M49.7938 80.086L45.3809 82.6722" stroke="white" stroke-width="0.847059" stroke-linecap="round" stroke-linejoin="round"/>
    <path d="M48.1174 177.106C51.0412 177.106 53.4115 174.726 53.4115 171.79C53.4115 168.854 51.0412 166.473 48.1174 166.473C45.1935 166.473 42.8232 168.854 42.8232 171.79C42.8232 174.726 45.1935 177.106 48.1174 177.106Z" stroke="white" stroke-width="0.847059" stroke-linecap="round" stroke-linejoin="round"/>
    <path d="M48.1172 173.917V171.79" stroke="white" stroke-width="0.847059" stroke-linecap="round" stroke-linejoin="round"/>
    <path d="M48.1172 169.663H48.1222" stroke="white" stroke-width="0.847059" stroke-linecap="round" stroke-linejoin="round"/>
    <path d="M47.5869 64.3957C44.9554 64.3957 42.8222 62.2534 42.8222 59.6108C42.8222 56.9681 44.9554 54.8259 47.5869 54.8259C50.2183 54.8259 52.3516 56.9681 52.3516 59.6108C52.3516 62.2534 50.2183 64.3957 47.5869 64.3957Z" stroke="white" stroke-width="0.847059" stroke-linecap="round" stroke-linejoin="round"/>
    <path d="M41.7642 65.459L43.8818 63.3323" stroke="white" stroke-width="0.847059" stroke-linecap="round" stroke-linejoin="round"/>
    <path d="M47.5872 33.5597L41.7637 36.218L47.5872 38.8762L53.4107 36.218L47.5872 33.5597Z" stroke="white" stroke-width="0.847059" stroke-linecap="round" stroke-linejoin="round"/>
    <path d="M41.7637 41.0029L47.5872 43.1295L53.4107 41.0029" stroke="white" stroke-width="0.847059" stroke-linecap="round" stroke-linejoin="round"/>
    <path d="M41.7637 38.8762L47.5872 41.0028L53.4107 38.8762" stroke="white" stroke-width="0.847059" stroke-linecap="round" stroke-linejoin="round"/>
    <g filter="url(#filter1_b_533_321)">
        <rect x="14" y="267" width="446" height="237" rx="13" fill="url(#paint2_linear_533_321)"/>
        <rect x="14.5" y="267.5" width="445" height="236" rx="12.5" stroke="url(#paint3_linear_533_321)"/>
    </g>
    <rect x="31.2647" y="285.265" width="34.4118" height="203.626" rx="5.02941" stroke="#555252" stroke-width="0.529412"/>
    <path d="M52.3523 347.381C53.4244 347.381 54.2935 346.508 54.2935 345.431C54.2935 344.355 53.4244 343.482 52.3523 343.482C51.2802 343.482 50.4111 344.355 50.4111 345.431C50.4111 346.508 51.2802 347.381 52.3523 347.381Z" stroke="white" stroke-width="0.847059" stroke-linecap="round" stroke-linejoin="round"/>
    <path d="M44.5877 351.929C45.6597 351.929 46.5288 351.057 46.5288 349.98C46.5288 348.903 45.6597 348.031 44.5877 348.031C43.5156 348.031 42.6465 348.903 42.6465 349.98C42.6465 351.057 43.5156 351.929 44.5877 351.929Z" stroke="white" stroke-width="0.847059" stroke-linecap="round" stroke-linejoin="round"/>
    <path d="M52.3523 356.478C53.4244 356.478 54.2935 355.605 54.2935 354.529C54.2935 353.452 53.4244 352.579 52.3523 352.579C51.2802 352.579 50.4111 353.452 50.4111 354.529C50.4111 355.605 51.2802 356.478 52.3523 356.478Z" stroke="white" stroke-width="0.847059" stroke-linecap="round" stroke-linejoin="round"/>
    <path d="M46.2637 350.961L50.6831 353.547" stroke="white" stroke-width="0.847059" stroke-linecap="round" stroke-linejoin="round"/>
    <path d="M50.6766 346.413L46.2637 348.999" stroke="white" stroke-width="0.847059" stroke-linecap="round" stroke-linejoin="round"/>
    <path d="M49.0002 443.433C51.924 443.433 54.2943 441.053 54.2943 438.117C54.2943 435.18 51.924 432.8 49.0002 432.8C46.0763 432.8 43.7061 435.18 43.7061 438.117C43.7061 441.053 46.0763 443.433 49.0002 443.433Z" stroke="white" stroke-width="0.847059" stroke-linecap="round" stroke-linejoin="round"/>
    <path d="M49 440.243V438.117" stroke="white" stroke-width="0.847059" stroke-linecap="round" stroke-linejoin="round"/>
    <path d="M49 435.99H49.005" stroke="white" stroke-width="0.847059" stroke-linecap="round" stroke-linejoin="round"/>
    <path d="M48.4697 330.722C45.8382 330.722 43.705 328.58 43.705 325.937C43.705 323.295 45.8382 321.153 48.4697 321.153C51.1011 321.153 53.2344 323.295 53.2344 325.937C53.2344 328.58 51.1011 330.722 48.4697 330.722Z" stroke="white" stroke-width="0.847059" stroke-linecap="round" stroke-linejoin="round"/>
    <path d="M42.647 331.786L44.7646 329.659" stroke="white" stroke-width="0.847059" stroke-linecap="round" stroke-linejoin="round"/>
    <path d="M48.47 299.886L42.6465 302.545L48.47 305.203L54.2935 302.545L48.47 299.886Z" stroke="white" stroke-width="0.847059" stroke-linecap="round" stroke-linejoin="round"/>
    <path d="M42.6465 307.33L48.47 309.456L54.2935 307.33" stroke="white" stroke-width="0.847059" stroke-linecap="round" stroke-linejoin="round"/>
    <path d="M42.6465 305.203L48.47 307.33L54.2935 305.203" stroke="white" stroke-width="0.847059" stroke-linecap="round" stroke-linejoin="round"/>
    <g filter="url(#filter2_b_533_321)">
        <rect x="282" y="33" width="251" height="211" rx="11.4292" fill="url(#paint4_linear_533_321)"/>
        <rect x="282.44" y="33.4396" width="250.121" height="210.121" rx="10.9896" stroke="url(#paint5_linear_533_321)" stroke-width="0.879167"/>
    </g>
    <rect x="298.226" y="49.2256" width="29.3289" height="173.549" rx="4.28653" stroke="white" stroke-width="0.451213"/>
    <path d="M316.199 102.167C317.113 102.167 317.854 101.423 317.854 100.505C317.854 99.5876 317.113 98.8438 316.199 98.8438C315.286 98.8438 314.545 99.5876 314.545 100.505C314.545 101.423 315.286 102.167 316.199 102.167Z" stroke="white" stroke-width="0.721941" stroke-linecap="round" stroke-linejoin="round"/>
    <path d="M309.581 106.043C310.495 106.043 311.236 105.3 311.236 104.382C311.236 103.464 310.495 102.721 309.581 102.721C308.667 102.721 307.927 103.464 307.927 104.382C307.927 105.3 308.667 106.043 309.581 106.043Z" stroke="white" stroke-width="0.721941" stroke-linecap="round" stroke-linejoin="round"/>
    <path d="M316.199 109.92C317.113 109.92 317.854 109.176 317.854 108.259C317.854 107.341 317.113 106.597 316.199 106.597C315.286 106.597 314.545 107.341 314.545 108.259C314.545 109.176 315.286 109.92 316.199 109.92Z" stroke="white" stroke-width="0.721941" stroke-linecap="round" stroke-linejoin="round"/>
    <path d="M311.01 105.218L314.776 107.422" stroke="white" stroke-width="0.721941" stroke-linecap="round" stroke-linejoin="round"/>
    <path d="M314.771 101.341L311.01 103.546" stroke="white" stroke-width="0.721941" stroke-linecap="round" stroke-linejoin="round"/>
    <path d="M313.341 184.031C315.833 184.031 317.853 182.003 317.853 179.5C317.853 176.997 315.833 174.969 313.341 174.969C310.849 174.969 308.829 176.997 308.829 179.5C308.829 182.003 310.849 184.031 313.341 184.031Z" stroke="white" stroke-width="0.721941" stroke-linecap="round" stroke-linejoin="round"/>
    <path d="M313.341 181.313V179.5" stroke="white" stroke-width="0.721941" stroke-linecap="round" stroke-linejoin="round"/>
    <path d="M313.341 177.688H313.346" stroke="white" stroke-width="0.721941" stroke-linecap="round" stroke-linejoin="round"/>
    <path d="M312.89 87.9688C310.647 87.9688 308.829 86.1429 308.829 83.8906C308.829 81.6383 310.647 79.8125 312.89 79.8125C315.133 79.8125 316.951 81.6383 316.951 83.8906C316.951 86.1429 315.133 87.9688 312.89 87.9688Z" stroke="white" stroke-width="0.721941" stroke-linecap="round" stroke-linejoin="round"/>
    <path d="M307.927 88.875L309.731 87.0625" stroke="white" stroke-width="0.721941" stroke-linecap="round" stroke-linejoin="round"/>
    <path d="M312.89 61.6875L307.927 63.9531L312.89 66.2187L317.853 63.9531L312.89 61.6875Z" stroke="white" stroke-width="0.721941" stroke-linecap="round" stroke-linejoin="round"/>
    <path d="M307.927 68.0312L312.89 69.8438L317.853 68.0312" stroke="white" stroke-width="0.721941" stroke-linecap="round" stroke-linejoin="round"/>
    <path d="M307.927 66.2188L312.89 68.0313L317.853 66.2188" stroke="white" stroke-width="0.721941" stroke-linecap="round" stroke-linejoin="round"/>
    <g filter="url(#filter3_b_533_321)">
        <rect y="237.231" width="50" height="50" rx="10" transform="rotate(-16.5362 0 237.231)" fill="url(#paint6_linear_533_321)"/>
        <rect x="0.310815" y="237.4" width="49.5" height="49.5" rx="9.75" transform="rotate(-16.5362 0.310815 237.4)" stroke="url(#paint7_linear_533_321)" stroke-width="0.5"/>
    </g>
    <path fill-rule="evenodd" clip-rule="evenodd" d="M26.6501 240.619C18.926 242.913 14.5274 251.026 16.8207 258.75C18.5826 264.685 23.7646 268.641 29.5748 269.132C30.0683 269.174 30.6647 269.254 30.9737 268.867C31.1265 268.676 31.1422 268.431 31.0816 268.226C30.6794 266.872 29.1293 266.332 27.722 266.461C26.2067 266.599 25.4554 265.865 25.1025 265.381C24.8259 265.026 23.776 263.987 23.0832 263.832C22.5161 263.715 21.6251 263.276 22.7908 262.911C23.8865 262.566 24.979 263.364 25.3657 263.705C26.9992 265.213 28.5932 264.522 29.4422 263.916C29.6604 263.76 29.738 263.39 29.7299 263.123C29.7093 262.444 29.0313 261.692 28.3526 261.721C25.6658 261.837 23.0068 260.884 21.7055 256.501C21.4987 255.805 21.4219 255.129 21.4573 254.482C21.5324 253.107 21.6923 252.178 21.2842 250.864C20.9641 249.832 21.655 248.274 22.7329 248.337C22.8875 248.346 23.0543 248.361 23.2341 248.384C24.59 248.555 25.9828 248.402 27.2422 247.871C27.7128 247.673 28.1963 247.5 28.6878 247.354C29.1704 247.211 29.6608 247.094 30.1542 247.004C31.5151 246.755 32.778 246.11 33.8353 245.218C33.9721 245.103 34.1022 245.001 34.2255 244.91C35.089 244.277 36.5059 245.208 36.8016 246.237C37.1847 247.57 37.8326 248.271 38.6481 249.394C39.0238 249.911 39.3235 250.513 39.5302 251.209C40.6439 254.96 39.5538 257.144 37.7694 258.553C36.8846 259.252 36.5918 261.231 36.9127 262.312C37.4679 264.182 37.8966 265.69 38.0367 266.162C38.1457 266.528 38.5375 266.888 39.195 266.54C41.6921 264.779 43.5741 262.28 44.5761 259.393C45.5782 256.506 45.6498 253.378 44.781 250.449C42.4877 242.725 34.3741 238.326 26.6501 240.619Z" fill="#FFFEFE"/>
    <defs>
        <filter id="filter0_b_533_321" x="-26" y="-40" width="330" height="324" filterUnits="userSpaceOnUse" color-interpolation-filters="sRGB">
            <feFlood flood-opacity="0" result="BackgroundImageFix"/>
            <feGaussianBlur in="BackgroundImageFix" stdDeviation="20"/>
            <feComposite in2="SourceAlpha" operator="in" result="effect1_backgroundBlur_533_321"/>
            <feBlend mode="normal" in="SourceGraphic" in2="effect1_backgroundBlur_533_321" result="shape"/>
        </filter>
        <filter id="filter1_b_533_321" x="-26" y="227" width="526" height="317" filterUnits="userSpaceOnUse" color-interpolation-filters="sRGB">
            <feFlood flood-opacity="0" result="BackgroundImageFix"/>
            <feGaussianBlur in="BackgroundImageFix" stdDeviation="20"/>
            <feComposite in2="SourceAlpha" operator="in" result="effect1_backgroundBlur_533_321"/>
            <feBlend mode="normal" in="SourceGraphic" in2="effect1_backgroundBlur_533_321" result="shape"/>
        </filter>
        <filter id="filter2_b_533_321" x="246.833" y="-2.16667" width="321.333" height="281.333" filterUnits="userSpaceOnUse" color-interpolation-filters="sRGB">
            <feFlood flood-opacity="0" result="BackgroundImageFix"/>
            <feGaussianBlur in="BackgroundImageFix" stdDeviation="17.5833"/>
            <feComposite in2="SourceAlpha" operator="in" result="effect1_backgroundBlur_533_321"/>
            <feBlend mode="normal" in="SourceGraphic" in2="effect1_backgroundBlur_533_321" result="shape"/>
        </filter>
        <filter id="filter3_b_533_321" x="-47.5703" y="175.43" width="157.304" height="157.303" filterUnits="userSpaceOnUse" color-interpolation-filters="sRGB">
            <feFlood flood-opacity="0" result="BackgroundImageFix"/>
            <feGaussianBlur in="BackgroundImageFix" stdDeviation="25"/>
            <feComposite in2="SourceAlpha" operator="in" result="effect1_backgroundBlur_533_321"/>
            <feBlend mode="normal" in="SourceGraphic" in2="effect1_backgroundBlur_533_321" result="shape"/>
        </filter>
        <linearGradient id="paint0_linear_533_321" x1="-49.2022" y1="-53.5739" x2="344.89" y2="123.163" gradientUnits="userSpaceOnUse">
            <stop stop-color="white" stop-opacity="0.03"/>
            <stop offset="1" stop-color="white" stop-opacity="0.03"/>
        </linearGradient>
        <linearGradient id="paint1_linear_533_321" x1="25.5" y1="8.80817e-07" x2="198.5" y2="253" gradientUnits="userSpaceOnUse">
            <stop stop-color="#2B2CFF"/>
            <stop offset="1" stop-color="white"/>
        </linearGradient>
        <linearGradient id="paint2_linear_533_321" x1="14" y1="202.312" x2="526.403" y2="395.058" gradientUnits="userSpaceOnUse">
            <stop stop-color="white" stop-opacity="0.03"/>
            <stop offset="1" stop-color="white" stop-opacity="0.03"/>
        </linearGradient>
        <linearGradient id="paint3_linear_533_321" x1="388.793" y1="258.985" x2="31.1121" y2="447.786" gradientUnits="userSpaceOnUse">
            <stop stop-color="white"/>
            <stop offset="1" stop-color="#2B2CFF"/>
        </linearGradient>
        <linearGradient id="paint4_linear_533_321" x1="272.462" y1="-7.00208" x2="493.387" y2="295.362" gradientUnits="userSpaceOnUse">
            <stop stop-color="white" stop-opacity="0.03"/>
            <stop offset="1" stop-color="white" stop-opacity="0.03"/>
        </linearGradient>
        <linearGradient id="paint5_linear_533_321" x1="299.57" y1="244" x2="489.123" y2="7.85381" gradientUnits="userSpaceOnUse">
            <stop stop-color="white"/>
            <stop offset="1" stop-color="#2B2CFF"/>
        </linearGradient>
        <linearGradient id="paint6_linear_533_321" x1="25" y1="237.231" x2="25" y2="287.231" gradientUnits="userSpaceOnUse">
            <stop stop-color="white" stop-opacity="0.03"/>
            <stop offset="1" stop-color="white" stop-opacity="0.03"/>
        </linearGradient>
        <linearGradient id="paint7_linear_533_321" x1="-5.74348" y1="221.942" x2="47.4571" y2="295.834" gradientUnits="userSpaceOnUse">
            <stop stop-color="#702EF4"/>
            <stop offset="1" stop-color="white" stop-opacity="0.23"/>
        </linearGradient>
    </defs>
</svg>
