<svg xmlns="http://www.w3.org/2000/svg" width="23" height="23" fill="none"><path fill="#fff" fill-rule="evenodd" d="M11.206.904C5.115.904.181 5.838.181 11.93c0 4.878 3.156 9 7.538 10.46.552.096.758-.234.758-.524 0-.261-.013-1.13-.013-2.053-2.77.51-3.487-.675-3.708-1.296-.124-.317-.661-1.295-1.13-1.557-.386-.207-.937-.717-.014-.73.869-.014 1.489.799 1.696 1.13.992 1.667 2.577 1.199 3.21.91.097-.718.387-1.2.704-1.476-2.454-.275-5.017-1.226-5.017-5.443 0-1.2.427-2.192 1.13-2.964-.11-.275-.496-1.405.11-2.921 0 0 .924-.29 3.032 1.13a10.23 10.23 0 0 1 2.757-.372c.937 0 1.874.124 2.756.372 2.109-1.434 3.032-1.13 3.032-1.13.607 1.516.22 2.646.11 2.921.703.772 1.13 1.75 1.13 2.964 0 4.23-2.577 5.168-5.03 5.443.4.345.745 1.007.745 2.04 0 1.475-.014 2.66-.014 3.032 0 .29.207.634.758.524a11.044 11.044 0 0 0 7.511-10.46c0-6.092-4.934-11.026-11.026-11.026Z" clip-rule="evenodd"/></svg>
