<svg xmlns="http://www.w3.org/2000/svg" width="21" height="20" fill="none"><path stroke="#FCFCFC" stroke-linecap="round" stroke-linejoin="round" stroke-width="1.757" d="M12.345 8.51c-.847-.752-1.995-1.175-3.192-1.175-1.198 0-2.346.423-3.192 1.175l-3.193 2.838c-.847.752-1.323 1.773-1.323 2.837 0 1.065.476 2.085 1.323 2.838.846.753 1.995 1.175 3.192 1.175 1.198 0 2.346-.422 3.193-1.175l1.595-1.419"/><path stroke="#FCFCFC" stroke-linecap="round" stroke-linejoin="round" stroke-width="1.757" d="M9.153 11.348c.847.752 1.995 1.175 3.192 1.175s2.345-.423 3.192-1.175L18.73 8.51c.847-.753 1.322-1.774 1.322-2.838 0-1.065-.475-2.085-1.322-2.838-.847-.753-1.995-1.175-3.192-1.175-1.198 0-2.346.422-3.193 1.175L10.75 4.254"/></svg>
