<svg xmlns="http://www.w3.org/2000/svg" width="79" height="428" fill="none"><path fill="#6111FE" fill-opacity=".06" d="m.107 327.053 77.699-8.347v27.719l-55.438 1.712 55.438 10.702v28.04l-55.01 10.917 55.01 1.605v27.719L.107 418.772v-36.388l50.622-9.311L.107 364.94v-37.887Zm58.113-51.775c-.142-27.112-.534-46.769-1.177-58.969 2.926.499 5.958.82 9.097.963 3.068.071 6.957.107 11.666.107v83.157c-13.842-.571-26.792-.856-38.85-.856s-25.007.285-38.849.856v-83.157h19.371v57.899h10.274c.072-3.424.108-8.49.108-15.197 0-11.344-.215-23.081-.643-35.211h18.408a999.1 999.1 0 0 0-.642 35.211c0 6.707.036 11.773.107 15.197h11.13ZM.214 108.302c12.058.499 24.972.749 38.742.749 13.842 0 26.792-.25 38.85-.749v38.314l-58.435 25.9 58.435-1.926v27.504c-13.842-.57-26.792-.856-38.85-.856-11.986 0-24.9.286-38.742.856V158.71l60.04-26.007-60.04 1.82v-26.221ZM0 26.756V.214h42.595c10.489.143 19.157 3.746 26.007 10.81 6.85 6.992 10.274 18.8 10.274 35.424 0 16.839-3.246 28.361-9.739 34.569-6.564 6.207-15.162 9.24-25.793 9.097H0V63.572h41.632c3.14 0 5.708-.214 7.706-.642 1.926-.5 3.746-1.998 5.458-4.495 1.712-2.569 2.569-6.671 2.569-12.308 0-6.136-.857-10.63-2.57-13.485-1.783-2.854-3.745-4.53-5.885-5.03-2.14-.57-4.888-.856-8.241-.856H0Z"/></svg>