<svg xmlns="http://www.w3.org/2000/svg" width="713" height="694" fill="none"><path stroke="#756662" stroke-width="5.909" d="M110.234 240.731c9.596 23.289 29.182 77.041 30.756 105.747"/><path stroke="#000" stroke-opacity=".53" stroke-width="4.432" d="M210.611 399.988c2.048 51.548 20.459 160.332 77.719 183.083m-91.424-179.216c9.096 55.293 11.025 170.875-54.028 190.855"/><path fill="#DFA654" d="M86.332 138.341c-15.041-5.468-33.924 2.202-36.843 9.594-1.302 8.797-3.45 12.609 20.945 59.511 24.395 46.903 12.46 65.401 33.596 70.606 16.91 4.163 45.9-12.536 48.395-15.633 25.018-18.674-47.292-117.245-66.093-124.078Z"/><path fill="#F2CD87" d="M92.027 134.307c-13.149-7.641-35.204 5.96-40.934 9.686-2.467 7.828 6.51 17.613 29.775 57.68 20.393 35.121 16.41 67.205 46.713 69.893 17.455 1.549 29.377-12.235 31.871-15.332 25.018-18.674-50.226-111.932-67.425-121.927Z"/><path fill="#EABD7E" d="M117.917 363.872c-1.537-19.201 16.131-30.948 21.559-31.382 46.664-.972 211.332-7.508 190.351 33.739-20.981 41.247-97.112 59.829-156.644 42.82-50.32-14.378-54.147-31.19-55.266-45.177Z"/><path fill="#F2CD87" d="M123.904 357.244c-1.537-19.201 12.044-23.963 17.473-24.398 46.663-.971 211.931-14.202 190.95 27.045-20.98 41.247-104.912 54.404-155.232 40.027-50.32-14.378-52.072-28.687-53.191-42.674Z"/><ellipse cx="199.176" cy="652.404" fill="#EDC9BC" rx="68.483" ry="9.175" transform="rotate(-4.575 199.176 652.404)"/><path stroke="#756662" stroke-width="2.954" d="m185.03 557.176 66.537-5.324"/><ellipse cx="293.326" cy="613.174" fill="#DFA654" rx="36.491" ry="35.679" transform="rotate(-4.575 293.326 613.174)"/><ellipse cx="298.228" cy="611.756" fill="#F2CD87" rx="33.492" ry="35.679" transform="rotate(-4.575 298.228 611.756)"/><ellipse cx="298.18" cy="611.244" fill="#46274C" rx="17.496" ry="18.859" transform="rotate(-4.575 298.18 611.244)"/><ellipse cx="135.822" cy="625.263" fill="#DFA654" rx="37.491" ry="36.189" transform="rotate(-4.575 135.822 625.263)"/><ellipse cx="142.848" cy="625.187" fill="#F2CD87" rx="33.503" ry="35.899" transform="rotate(-4.575 142.848 625.187)"/><ellipse cx="141.946" cy="624.261" fill="#46274C" rx="18.811" ry="19.369" transform="rotate(-4.575 141.946 624.261)"/><path fill="#EAA296" d="m506.332 540.514-9.826-24.495-47.541 21.353 11.668 25.144 45.699-22.002Z"/><path fill="#fff" d="m505.871 540.355 5.98 15.802c8.774 33.608-23.105 35.521-40.142 32.277l-11.536-26.076 45.698-22.003Z"/><path fill="#DD3728" d="m492.552 584.108-28.98-15.934c-17.549 23.948-10.01 50.981-4.047 61.504l139.529-48.831c-2.128-5.131-7.223-18.015-14.468-23.323-11.024-8.078-59.783 4.356-68.213 9.072-6.744 3.772-14.456 12.481-23.821 17.512Z"/><path fill="#46274C" d="m595.355 572.305-138.547 47.251c-2.286.78.868 7.081 2.731 10.134l139.159-48.978-3.343-8.407Z"/><path stroke="#46274C" stroke-linecap="round" stroke-width="4.432" d="m526.173 564.13-15.664 19.991m5.46-17.818-19.246 16.99"/><path stroke="#fff" stroke-linecap="round" stroke-width="5.909" d="m594.583 572.88-138.439 46.585"/><path fill="#EAA296" d="m342.644 590.39 8.546-26.719-51.625-14.118-7.528 28.483 50.607 12.354Z"/><path fill="#fff" d="m342.382 589.95-5.795 16.998c-15.433 33.521-41.805 13.841-53.062-.19l8.251-29.162 50.606 12.354Z"/><path fill="#E95850" d="m302.811 617.088-12.225-32.442c-29.737 8.017-41.771 35.301-44.072 47.942l142.318 52.827c1.735-5.643 6.288-19.649 4.113-28.85-3.31-14.002-49.966-36.275-59.738-38.013-7.818-1.39-19.679.638-30.396-1.464Z"/><path fill="#46274C" d="m391.604 675.916-140.495-53.473c-2.317-.882-4.023 6.409-4.586 10.164l142.124 52.461 2.957-9.152Z"/><path stroke="#46274C" stroke-linecap="round" stroke-width="4.432" d="m342.563 623.061-25.622 6.015m16.148-11.035-26.448 1.157"/><path stroke="#fff" stroke-linecap="round" stroke-width="5.909" d="m390.612 675.877-139.967-53.951"/><path fill="#fff" d="M119.629 203.223c22.511-32.575 55.19-61.579 68.716-72.01 12.952 2.687 32.473 6.138 37.318.985 6.056-6.441 35.846 13.015 62.699 41.392 13.244 13.995 31.262 34.808 40.13 42.206 6.071-15.377 18.88-46.927 28.362-65.307l43.966 14.103c-5.977 101.734-39.111 140.867-71.518 143.46-25.926 2.075-47.275-23.02-54.709-35.827l3.196 39.949-103.992 8.321c-89.725 19.34-99.876-19.308-95.369-39.026 4.507-19.718 13.062-37.527 41.201-78.246Z"/><path fill="#9872EF" d="M380.801 332.249c-18.413 1.905-83.944-4.767-126.39 10.113l-56.399 11.786c1.381 12.957 43.131-2.086 64.012 6.822 20.881 8.909 108.554-27.097 122.938 23.283l38.326 162.254 109.249-29.644c-35.964-59.831-86.03-153.282-107.463-177.627-5.251-5.964-21.256-9.368-44.273-6.987Z"/><path fill="#9872EF" d="M398.81 312.172c-16.929-8.592-96.689 14.216-141.045 3.129l-82.802 6.626c-5.39 11.536-8.843 23.524 1.342 41.652 20.894 37.189 80.862 40.22 153.248 10.064l-63.748 184.325 109.958 30.641c20.608-140.558 25.943-214.637 27.494-220.863 3.052-12.247 16.714-44.833-4.447-55.574Z"/><path fill="#46274C" d="m299.33 305.094-125.081 11.381-1.932 11.622 126.273-14.351.74-8.652Z"/><path fill="#fff" d="m198.514 312.213 2.308-.263 1.502 12.724-2.308.263zm64.111-6.773 2.308-.263 1.43 12.115-2.308.263zm-78.539 8.416 2.308-.263 1.502 12.724-2.308.263z"/><path fill="#8697FB" d="m219.638 143.541-6.417-9.459-7.361 10.562c-1.609 42.133.245 118.582 1.373 151.54l12.653-1.013c-1.776-13.702-.905-106.796-.248-151.63Z"/><path fill="#46274C" d="M194.66 121.336c15.83-3.047 37.593-4.272 41.475-3.318l-22.89 15.293-18.585-11.975Z"/><path fill="#EAA296" d="M238.518 65.84c.579-4.707-1.137-9.231-2.067-10.905-8.219-3.226-25.751-8.427-30.126-3.416-4.376 5.012-1.286 18.748.805 24.99-9.834-18.44-25.658-7.27-24.732 4.309.742 9.263 11.21 10.756 16.352 10.344l3.103 38.789c13.667 9.627 24.284 2.524 27.884-2.231l-.203-17.463c18.521-7.308 15.305-25.113 12.469-30.712-2.837-5.6-4.208-7.82-3.485-13.705Z"/><ellipse cx="3.046" cy="6.314" fill="#E9746E" fill-opacity=".78" rx="3.046" ry="6.314" transform="matrix(.97037 -.24162 .2124 .97718 235.756 77.254)"/><ellipse cx="5.187" cy="7.615" fill="#E9746E" fill-opacity=".78" rx="5.187" ry="7.615" transform="matrix(.99506 .09927 -.03607 .99935 211.152 77.047)"/><path fill="#46274C" d="M209.04 107.819c8.038 4.95 17.408 3.656 21.088 2.391l-.312 11.983c-10.589-1.017-18.261-10.303-20.776-14.374Zm-16.98-40.59c8.432-2.073 13.557 6.87 15.281 11.005-.661-5.774-.978-18.792 1.321-19.908 2.874-1.396 20.764-1.662 27.791-3.39 7.026-1.727 11.587-4.422 11.671-10.838.067-5.133-2.475-8.543-6.674-8.788-16.034-.94-42.214 2.212-46.682 6.065-3.575 3.083-4.098 8.485-3.912 10.8l1.204 15.054Z"/><path stroke="#46274C" stroke-linecap="round" stroke-width="2.954" d="m188.506 75.087 10.608 2.925-6.446 4.316"/><path stroke="#fff" stroke-width="2.954" d="M224.842 70.673c-.17 3.142-1.888 9.537-7.408 9.979-6.899.552-8.701-6.187-8.9-8.674m36.554-2.925c-.414 2.716-2.351 8.486-6.788 9.831-4.438 1.346-8.196-5.123-9.52-8.526"/><path stroke="#fff" stroke-linecap="round" stroke-width="2.954" d="m245.088 69.053-40.489 3.24"/><path fill="#fff" d="m187.779 131.82 7.636-11.172 17.697 13.105 23.156-16.177 6.266 18.56c-39.517-1.13-50.461-.475-54.755-4.316Z"/><path stroke="#46274C" stroke-width="2.954" d="M206.164 144.911c-1.811 49.096-.657 129.703 1.185 152.729m11.772-155.111.249 146.23"/><path stroke="#46274C" stroke-width="2.954" d="m241.407 136.226-15.529 15.808-12.902-17.84-11.682 18.008-13.886-21.661"/><ellipse cx="2.764" cy="2.769" fill="#fff" rx="2.764" ry="2.769" transform="matrix(-.94992 -.31248 -.28862 .95744 216.255 148.869)"/><ellipse cx="2.764" cy="2.769" fill="#fff" rx="2.764" ry="2.769" transform="matrix(-.94992 -.31248 -.28862 .95744 216.406 177.084)"/><path stroke="#46274C" stroke-linecap="round" stroke-width="2.954" d="M248.554 34.498c4.584 4.277 5.888 19.46-13.126 19.113m91.774 164.629c-.605 8.946-1.693 28.354-1.208 34.416"/><ellipse cx="3.532" cy="2.072" fill="#fff" fill-opacity=".63" rx="3.532" ry="2.072" transform="matrix(-.98595 -.16703 -.1507 .98858 226.6 302.809)"/><path fill="#fff" stroke="#46274C" stroke-linecap="round" stroke-width="2.954" d="m442.923 193.859 66.635-5.332c4.404-.352 8.131 3.216 7.97 7.631l-3.564 97.852-92.258 7.382 14.495-101.218a7.385 7.385 0 0 1 6.722-6.315Z"/><path fill="#46274C" d="m375.971 294.857 52.95-3.593-.587 10.331-29.34 2.347-29.805-.127-.08-1a7.386 7.386 0 0 1 6.862-7.958Z"/><path fill="#46274C" d="m448.467 192.74 77.461-6.198c4.725-.378 8.578 3.729 7.899 8.42l-14.444 99.809-92.001 6.129 14.36-101.829a7.386 7.386 0 0 1 6.725-6.331Z"/><ellipse cx="8.213" cy="12.095" fill="#fff" fill-opacity=".47" rx="8.213" ry="12.095" transform="scale(-1 1) rotate(4.575 -3118.188 -5999.937)"/><rect width="402.007" height="9.25" x="216.037" y="316.317" fill="#E9C5B8" rx="4.625" transform="rotate(-4.575 216.037 316.317)"/><path fill="#EAA296" d="m175.113 292.43 2.71 18.006c2.744 3.921 12.502 2.394 14.962.363l2.865-1.173c6.213-.599 12.231-.807 16.542 1.682 3.835 2.215 17.181 14.205 21.028 11.568 3.078-2.11-1.941-9.579-3.389-11.644 6.486 3.679 14.612 6.06 15.517 1.858.724-3.362-3.138-5.197-6.459-6.736 16.555.784 23.218-1.027 17.45-4.074-18.669-9.862-30.746-19.761-81.226-9.85Z"/><path stroke="#46274C" stroke-linecap="round" stroke-width="2.954" d="M237.457 304.781c-2.753-1.579-8.961-5.041-11.769-6.261m4.778 13.849c-3.622-3.488-11.788-10.635-15.479-11.32-3.692-.684-5.351-.409-5.719-.186"/><ellipse cx="4.135" cy="1.728" fill="#fff" fill-opacity=".63" rx="4.135" ry="1.728" transform="matrix(.8447 .52237 .47536 -.88697 237.295 309.174)"/><ellipse cx="3.271" cy="1.691" fill="#fff" fill-opacity=".63" rx="3.271" ry="1.691" transform="matrix(.96683 .23865 .14533 -.99211 250.899 304.222)"/><ellipse cx="3.542" cy="1.944" fill="#fff" fill-opacity=".63" rx="3.542" ry="1.944" transform="matrix(.41121 .9061 .88802 -.47139 227.869 315.77)"/><path fill="#E97E77" d="M182.902 319.263c15.617 1.303 14.161-11.805 33.093-5.141-4.501-5.197-15.085-7.644-21.853-5.074-5.415 2.056-11.214 2.178-11.891 2.077l.651 8.138Z"/><path fill="#8697FB" d="m185.831 318.786.056-45.417-12.674-.227.284 46.631 12.334-.987Z"/><path fill="#EAA296" d="M369.613 93.358c.409 5.449-.291 20.071-.692 26.7l35.989.8c5.948-9.881 1.097-29.868 6.13-28.603 5.033 1.264 2.544-18.28-.446-23.582-2.392-4.241-7.174-4.74-9.266-4.46 2.493-6.91.388-12.558-2.617-12.46-2.403.079-8.622 7.693-11.43 11.49-4.375-3.033-7.501 3.49-8.772 5.066-14.835-35.72-26.234-32.345-23.427-24.815 2.807 7.53 14.02 43.052 14.531 49.864Z"/><path fill="#EAA296" d="m403.471 153.78 3.171-36.23-33.496-1.478-10.741 21.108 41.066 16.6Z"/><path fill="#46274C" d="M406.999 119.584c-10.368-3.111-34.624-6.317-38.485-5.884l-2.047 15.637c4.385-.443 33.825 4.513 39.098 5.642l1.434-15.395Z"/><path fill="#fff" d="M373.773 129.898c2.558-5.567 2.737-12.939 2.294-15.67l-2.75.05-2.111 15.933 2.567-.313Z"/><ellipse cx="13.162" cy="7.383" fill="#46274C" rx="13.162" ry="7.383" transform="matrix(-.2078 .99347 .95875 .22536 363.249 106.528)"/><ellipse cx="13.162" cy="7.383" fill="#fff" rx="13.162" ry="7.383" transform="matrix(-.2078 .99347 .95875 .22536 361.066 106.385)"/><path stroke="#46274C" stroke-linecap="round" stroke-width="2.954" d="m363.296 116.741 1.245 3.88-4.891 5.207"/><path fill="#8697FB" d="m401.181 169.034-44.694-16.736 5.228-15.273 43.583 16.541-4.117 15.468Z"/><path fill="#E97E77" d="M400.596 68.03c.668 7.918 3.741 23.612 10.731 24.351.163-.016.316-.004.452.027a4.915 4.915 0 0 1-.452-.027c-1.069.104-2.567 1.387-2.428 6.072.2 6.749-.915 10.217-2.544 10.76.428-6.443-1.456-20.344-12.42-24.407 1.565-3.715 5.087-12.272 6.661-16.776Z"/><path stroke="#46274C" stroke-linecap="round" stroke-width="2.954" d="M380.473 76.92c2.01-5.388 4.673-10.518 8.222-15.313 7.493-10.126 8.777-10.45 11.514-9.905 2.738.545 4.127 9.71-6.365 33.238 4.151.711 12.442 6.453 12.394 23.732"/><path fill="#E97E77" d="m404.462 143.203-34.312-2.963 33.389 12.716.923-9.753Z"/><path fill="#ECE9E8" d="m169.881 228.984-36.629 44.128 19.264.444 18.217-.465c-9.959.254-6.198-28.789-.852-44.107Z"/><path stroke="#46274C" stroke-width="2.954" d="M130.572 273.078c9.289.498 22.729 1.16 40.383-.253"/><path fill="#E9C5B8" d="m233.538 656.072 64.087-338.241 22.666-1.814-39.376 176.06-38.016 163.246-9.361.749Zm467.503-29.04L574.253 294.458l-25.172 2.014 72.767 167.396 67.417 164.106 11.776-.942Z"/><path fill="#7C4CEB" d="M396.53 433.247c8.043-66.994 13.379-91.866 13.744-101.498 3.761.863 7.545 2.015 13.276 6.213-1.65 10.608-18.051 68.959-27.02 95.285Z"/><path fill="#E9C5B8" d="m633.899 98.942 18.963-17.47-97.212 7.778 4.548 56.848 76.981-6.16-3.28-40.996Z"/><path fill="#fff" fill-opacity=".68" stroke="#46274C" stroke-linecap="round" stroke-opacity=".63" stroke-width="2.954" d="m645.87 85.017 18.964-17.471-97.213 7.778 4.549 56.848 76.981-6.159-3.281-40.996Z"/><path fill="#46274C" d="m629.325 83.042-28.62 2.29.174 2.186 28.62-2.29zm1.138 14.211-16.777 1.342.175 2.186 16.777-1.342zm-28.65 14.393-16.777 1.342.175 2.186 16.777-1.342zm-3.084-26.156-16.777 1.343.175 2.186 16.777-1.343zm9.036 13.58-23.686 1.895.175 2.186 23.686-1.896zm23.659 10.206-27.634 2.211.175 2.186 27.634-2.211zM319.786 317.298l-22.712 1.817-.588 3.235 21.78.647 1.52-5.699Zm230.096-18.412 25.235-2.019 1.713 4.585-24.455 3.432-2.493-5.998Z"/></svg>