<svg xmlns="http://www.w3.org/2000/svg" width="768" height="482" fill="none"><g filter="url(#a)"><path fill="#fff" d="M12.274 391.351c-.264-1.184-.25-2.115.04-2.791.29-.677.877-1.108 1.761-1.292l.397 1.785c-.672.199-.886.849-.64 1.952.109.52.27.904.485 1.15.214.246.449.341.706.284a.618.618 0 0 0 .456-.386c.089-.204.121-.514.096-.931l-.047-.954a36.154 36.154 0 0 1-.03-.627c0-.165.005-.368.012-.608.015-.236.041-.435.079-.596.039-.156.096-.328.17-.516.076-.182.17-.335.284-.458.12-.118.27-.231.448-.338.186-.103.395-.18.628-.232.712-.158 1.33.008 1.855.497.526.489.906 1.265 1.142 2.327.236 1.061.221 1.931-.044 2.608-.266.678-.854 1.118-1.764 1.32l-.393-1.768c.645-.265.86-.883.645-1.851-.102-.455-.252-.786-.45-.993-.193-.202-.411-.276-.656-.221-.403.089-.585.466-.547 1.132l.037.827.013.309c.01.212.016.373.016.483.007.115.009.274.005.477a4.655 4.655 0 0 1-.087.928 1.706 1.706 0 0 1-.116.43c-.05.109-.117.231-.203.367-.08.134-.176.244-.285.329a2.117 2.117 0 0 1-.387.243 2.164 2.164 0 0 1-.503.176c-.758.168-1.406-.006-1.944-.523-.531-.519-.924-1.365-1.18-2.539Zm10.145 9.777-1.646.366-.605-2.722-5.705 1.269-.438-1.969 5.706-1.268-.606-2.722 1.646-.366 1.648 7.412Zm-6.116 7.188 1.055-.666-.77-3.465-1.239-.157-.453-2.039 7.973 1.166.615 2.766-6.728 4.434-.453-2.039Zm1.88-3.935.537 2.415 2.642-1.662-.08-.359-3.1-.394Zm.354 13.982-.434-1.951 1.84-1.594-.488-2.196-2.092.465-.44-1.978 7.351-1.634.885 3.981c.222.998.164 1.81-.174 2.436-.333.625-.942 1.036-1.83 1.233-.973.217-1.785-.019-2.434-.708l-2.184 1.946Zm4.532-6.545-2.118.471.418 1.881c.089.397.247.68.474.85.228.17.513.217.858.14.344-.076.583-.24.717-.49s.157-.574.07-.97l-.42-1.882Zm4.607 12.959-1.645.366-.605-2.722-5.705 1.269-.438-1.969 5.705-1.269-.605-2.721 1.646-.366 1.647 7.412Z"/></g><path fill="#fff" d="M77.66 326v-7.22l-2.982 5.479h-.942l-2.996-5.479V326h-1.598v-10.131h1.712l3.353 6.193 3.354-6.193h1.712V326H77.66Zm6.926.143c-.59 0-1.118-.1-1.584-.3a3.795 3.795 0 0 1-1.213-.856 3.945 3.945 0 0 1-.77-1.227 4.068 4.068 0 0 1-.272-1.484c0-.524.09-1.018.272-1.484.18-.467.437-.876.77-1.228a3.605 3.605 0 0 1 1.213-.841 3.88 3.88 0 0 1 1.584-.314c.58 0 1.103.104 1.57.314.475.199.88.48 1.212.841.343.352.605.761.785 1.228.181.466.271.96.271 1.484 0 .523-.09 1.018-.27 1.484-.181.456-.443.865-.786 1.227a3.595 3.595 0 0 1-1.212.856c-.467.2-.99.3-1.57.3Zm-2.226-3.853c0 .476.1.904.3 1.284.2.381.466.68.799.899.332.219.708.328 1.127.328.409 0 .78-.109 1.113-.328.342-.228.614-.533.813-.913.2-.39.3-.818.3-1.284 0-.476-.1-.904-.3-1.285-.2-.38-.47-.68-.813-.899a1.926 1.926 0 0 0-1.113-.342c-.419 0-.794.114-1.127.342-.333.229-.6.533-.8.914-.2.371-.3.799-.3 1.284ZM96.509 326h-1.57v-4.181c0-.675-.123-1.18-.37-1.513-.248-.332-.595-.499-1.042-.499-.276 0-.562.076-.857.228a2.618 2.618 0 0 0-.784.628 2.387 2.387 0 0 0-.5.899V326h-1.57v-10.417h1.57v4.452a3.107 3.107 0 0 1 1.17-1.184 3.066 3.066 0 0 1 1.599-.442c.466 0 .85.08 1.155.242.305.162.543.385.714.671.18.276.304.599.37.97.077.362.115.747.115 1.156V326Zm1.822 0v-7.463h1.57V326h-1.57Zm0-8.69v-1.727h1.57v1.727h-1.57Zm7.651 2.583c-.609.009-1.151.147-1.627.413a2.266 2.266 0 0 0-.999 1.128V326h-1.569v-7.463h1.455v1.67a3.33 3.33 0 0 1 1.013-1.228c.419-.314.861-.485 1.327-.513h.229c.066 0 .123.004.171.014v1.413Zm.56 2.383c0-.714.142-1.361.428-1.941a3.58 3.58 0 0 1 1.198-1.398c.504-.352 1.085-.528 1.741-.528.571 0 1.085.147 1.541.442.466.295.828.661 1.085 1.099v-4.367h1.569v8.648c0 .18.034.309.1.385.067.076.176.119.328.128V326a4.536 4.536 0 0 1-.685.071c-.294 0-.547-.085-.756-.257a.829.829 0 0 1-.314-.613l-.014-.557a3.014 3.014 0 0 1-1.156 1.113 3.19 3.19 0 0 1-1.512.386c-.514 0-.99-.1-1.427-.3-.428-.2-.804-.48-1.128-.842a4.178 4.178 0 0 1-.742-1.241 4.275 4.275 0 0 1-.256-1.484Zm5.993 1.041v-1.955a2.116 2.116 0 0 0-.514-.813 2.611 2.611 0 0 0-.785-.585 1.895 1.895 0 0 0-.856-.214c-.333 0-.637.071-.913.214a2.35 2.35 0 0 0-.699.571 2.688 2.688 0 0 0-.443.813 2.94 2.94 0 0 0-.157.956c0 .343.057.666.171.971.115.294.276.561.486.799.218.228.466.409.742.542.285.124.594.185.927.185.209 0 .419-.038.628-.114.219-.076.423-.181.614-.314.199-.133.366-.29.499-.471.143-.18.243-.375.3-.585Zm6.945 2.826c-.58 0-1.108-.1-1.584-.3a3.909 3.909 0 0 1-1.213-.842 4.01 4.01 0 0 1-.799-1.227 4.063 4.063 0 0 1-.271-1.484c0-.704.162-1.346.485-1.926a3.716 3.716 0 0 1 1.356-1.413c.58-.362 1.26-.542 2.04-.542s1.451.18 2.012.542a3.671 3.671 0 0 1 1.327 1.398 3.872 3.872 0 0 1 .428 2.44h-5.979c.029.438.148.823.357 1.156.219.324.495.58.828.771.333.18.689.271 1.07.271.419 0 .813-.105 1.184-.314.381-.209.638-.485.771-.828l1.341.386a2.89 2.89 0 0 1-.742.984 3.728 3.728 0 0 1-1.156.685 4.24 4.24 0 0 1-1.455.243Zm-2.24-4.395h4.509a2.245 2.245 0 0 0-.371-1.128 2.183 2.183 0 0 0-.814-.77 2.1 2.1 0 0 0-1.084-.286 2.22 2.22 0 0 0-1.884 1.056c-.209.324-.328.7-.356 1.128Zm9.219 4.252-2.84-7.463h1.627l2.126 6.008 2.126-6.008h1.513l-2.84 7.463h-1.712Zm9.013 0v-10.131h6.75v1.412h-5.151v3.025h4.309v1.328h-4.309V326h-1.599Zm11.8-6.107c-.609.009-1.151.147-1.627.413a2.266 2.266 0 0 0-.999 1.128V326h-1.57v-7.463h1.456v1.67a3.32 3.32 0 0 1 1.013-1.228c.419-.314.861-.485 1.327-.513h.228a.86.86 0 0 1 .172.014v1.413Zm4.355 6.25c-.589 0-1.117-.1-1.583-.3a3.78 3.78 0 0 1-1.213-.856 3.95 3.95 0 0 1-.771-1.227 4.063 4.063 0 0 1-.271-1.484c0-.524.09-1.018.271-1.484.181-.467.438-.876.771-1.228a3.592 3.592 0 0 1 1.213-.841 3.874 3.874 0 0 1 1.583-.314c.581 0 1.104.104 1.57.314.476.199.88.48 1.213.841.342.352.604.761.785 1.228.181.466.271.96.271 1.484 0 .523-.09 1.018-.271 1.484a3.832 3.832 0 0 1-.785 1.227 3.593 3.593 0 0 1-1.213.856c-.466.2-.989.3-1.57.3Zm-2.226-3.853c0 .476.1.904.3 1.284.2.381.466.68.799.899.333.219.709.328 1.127.328.41 0 .781-.109 1.113-.328.343-.228.614-.533.814-.913.2-.39.3-.818.3-1.284 0-.476-.1-.904-.3-1.285a2.33 2.33 0 0 0-.814-.899 1.921 1.921 0 0 0-1.113-.342 1.95 1.95 0 0 0-1.127.342 2.491 2.491 0 0 0-.799.914c-.2.371-.3.799-.3 1.284Zm14.15 3.71h-1.57v-4.181c0-.694-.114-1.203-.343-1.527-.218-.323-.547-.485-.984-.485-.305 0-.609.076-.913.228a2.801 2.801 0 0 0-.8.628 2.295 2.295 0 0 0-.513.899V326h-1.57v-7.463h1.427v1.498c.19-.333.438-.618.742-.856a3.57 3.57 0 0 1 1.056-.571 3.82 3.82 0 0 1 1.241-.199c.448 0 .814.08 1.099.242.295.162.523.385.685.671.171.276.286.599.343.97.066.362.1.747.1 1.156V326Zm5.918-.385a5.097 5.097 0 0 1-1.184.414 3.425 3.425 0 0 1-.771.085c-.323 0-.623-.057-.899-.171a1.493 1.493 0 0 1-.67-.542c-.162-.257-.243-.585-.243-.985v-4.666h-.985v-1.213h.985v-2.454h1.57v2.454h1.626v1.213h-1.626v4.167c.019.257.1.447.242.57a.853.853 0 0 0 .557.186c.219 0 .428-.038.628-.114.199-.076.347-.138.442-.186l.328 1.242Zm4.372.528c-.581 0-1.109-.1-1.584-.3a3.897 3.897 0 0 1-1.213-.842 3.99 3.99 0 0 1-.799-1.227 4.063 4.063 0 0 1-.271-1.484c0-.704.161-1.346.485-1.926a3.713 3.713 0 0 1 1.355-1.413c.581-.362 1.261-.542 2.041-.542s1.451.18 2.012.542a3.671 3.671 0 0 1 1.327 1.398 3.872 3.872 0 0 1 .428 2.44h-5.979c.029.438.148.823.357 1.156.219.324.495.58.828.771.332.18.689.271 1.07.271.418 0 .813-.105 1.184-.314.381-.209.637-.485.771-.828l1.341.386a2.903 2.903 0 0 1-.742.984 3.74 3.74 0 0 1-1.156.685 4.24 4.24 0 0 1-1.455.243Zm-2.241-4.395h4.509a2.236 2.236 0 0 0-.371-1.128 2.173 2.173 0 0 0-.813-.77 2.1 2.1 0 0 0-1.084-.286 2.212 2.212 0 0 0-1.884 1.056c-.209.324-.328.7-.357 1.128ZM185.638 326h-1.57v-4.181c0-.694-.114-1.203-.342-1.527-.219-.323-.547-.485-.985-.485-.304 0-.609.076-.913.228a2.784 2.784 0 0 0-.799.628 2.297 2.297 0 0 0-.514.899V326h-1.57v-7.463h1.427v1.498c.19-.333.438-.618.742-.856a3.57 3.57 0 0 1 1.056-.571c.39-.133.804-.199 1.242-.199.447 0 .813.08 1.098.242.295.162.524.385.685.671.172.276.286.599.343.97.066.362.1.747.1 1.156V326Zm1.351-3.724c0-.714.142-1.361.428-1.941a3.588 3.588 0 0 1 1.198-1.398 2.969 2.969 0 0 1 1.741-.528c.571 0 1.085.147 1.541.442.467.295.828.661 1.085 1.099v-4.367h1.57v8.648c0 .18.033.309.099.385.067.076.176.119.329.128V326a4.56 4.56 0 0 1-.685.071c-.295 0-.547-.085-.757-.257a.832.832 0 0 1-.314-.613l-.014-.557c-.285.476-.67.847-1.156 1.113a3.19 3.19 0 0 1-1.512.386c-.514 0-.99-.1-1.427-.3a3.46 3.46 0 0 1-1.127-.842 4.157 4.157 0 0 1-.742-1.241 4.252 4.252 0 0 1-.257-1.484Zm5.993 1.041v-1.955a2.116 2.116 0 0 0-.514-.813 2.611 2.611 0 0 0-.785-.585 1.892 1.892 0 0 0-.856-.214c-.333 0-.637.071-.913.214-.266.143-.5.333-.699.571a2.688 2.688 0 0 0-.443.813 2.94 2.94 0 0 0-.157.956c0 .343.057.666.172.971.114.294.275.561.485.799.219.228.466.409.742.542.285.124.594.185.927.185.21 0 .419-.038.628-.114a2.49 2.49 0 0 0 .614-.314c.2-.133.366-.29.499-.471.143-.18.243-.375.3-.585Zm7.289 2.683v-10.131h4.252c.456 0 .875.095 1.256.285.38.19.713.442.998.756a3.378 3.378 0 0 1 .885 2.255c0 .561-.128 1.099-.385 1.612a3.098 3.098 0 0 1-1.07 1.228c-.457.313-.99.47-1.599.47h-2.739V326h-1.598Zm1.598-4.937h2.64c.304 0 .57-.081.799-.243.228-.171.404-.399.528-.685a2.27 2.27 0 0 0 .199-.97c0-.371-.076-.699-.228-.985a1.674 1.674 0 0 0-.599-.656 1.366 1.366 0 0 0-.785-.243h-2.554v3.782Zm11.288-1.17c-.609.009-1.151.147-1.627.413a2.266 2.266 0 0 0-.999 1.128V326h-1.57v-7.463h1.456v1.67a3.32 3.32 0 0 1 1.013-1.228c.419-.314.861-.485 1.327-.513h.228a.86.86 0 0 1 .172.014v1.413Zm.585 3.924c0-.476.134-.89.4-1.242.276-.361.652-.637 1.127-.827.476-.2 1.028-.3 1.655-.3.333 0 .671.024 1.014.071.352.048.661.124.927.229v-.471c0-.523-.157-.932-.471-1.227-.314-.295-.766-.443-1.355-.443-.419 0-.814.076-1.185.229a6.69 6.69 0 0 0-1.184.613l-.528-1.056c.495-.333.989-.58 1.484-.742a5.144 5.144 0 0 1 1.584-.242c.999 0 1.784.266 2.354.799.581.523.871 1.27.871 2.24v2.783c0 .18.028.309.085.385.067.076.176.119.329.128V326a3.255 3.255 0 0 1-.671.071c-.333 0-.585-.081-.756-.242a.93.93 0 0 1-.3-.571l-.043-.428a3.215 3.215 0 0 1-1.241.97 3.663 3.663 0 0 1-1.527.343c-.495 0-.937-.1-1.327-.3a2.36 2.36 0 0 1-.913-.842 2.197 2.197 0 0 1-.329-1.184Zm4.752.456c.114-.123.205-.247.271-.371a.704.704 0 0 0 .1-.328v-.856a4.002 4.002 0 0 0-.842-.228 4.58 4.58 0 0 0-.87-.086c-.571 0-1.037.114-1.399.343-.352.228-.528.542-.528.941 0 .219.057.428.172.628.123.2.294.362.513.485.229.124.509.186.842.186a2.5 2.5 0 0 0 .985-.2c.314-.133.566-.304.756-.514Zm9.039 1.727-2.397-3.439-1.227 1.17V326h-1.57v-10.417h1.57v6.564l3.453-3.596h1.684l-2.897 3.125 3.054 4.324h-1.67Zm6.776-.385a5.097 5.097 0 0 1-1.184.414 3.431 3.431 0 0 1-.771.085c-.323 0-.623-.057-.899-.171a1.5 1.5 0 0 1-.671-.542c-.161-.257-.242-.585-.242-.985v-4.666h-.985v-1.213h.985v-2.454h1.57v2.454h1.626v1.213h-1.626v4.167c.019.257.099.447.242.57a.853.853 0 0 0 .557.186c.218 0 .428-.038.627-.114.2-.076.348-.138.443-.186l.328 1.242Zm1.087.385v-7.463h1.57V326h-1.57Zm0-8.69v-1.727h1.57v1.727h-1.57Zm8.65 8.69-2.397-3.439-1.227 1.17V326h-1.57v-10.417h1.57v6.564l3.453-3.596h1.684l-2.897 3.125 3.054 4.324h-1.67Zm2.552-2.897v-4.566h1.57v4.252c0 .666.119 1.17.357 1.513.247.333.604.499 1.07.499.295 0 .58-.061.856-.185.285-.124.542-.305.771-.542.237-.248.428-.543.57-.885v-4.652h1.57v5.694c0 .18.033.309.1.385.067.076.176.119.328.128V326a4.613 4.613 0 0 1-.399.057c-.105.01-.205.014-.3.014a1.11 1.11 0 0 1-.714-.228.92.92 0 0 1-.328-.614l-.028-.742a3.383 3.383 0 0 1-1.299 1.242 3.76 3.76 0 0 1-1.755.414c-.78 0-1.37-.257-1.769-.771-.4-.514-.6-1.27-.6-2.269ZM266.781 326h-1.57v-4.181c0-.694-.114-1.203-.342-1.527-.229-.323-.562-.485-.999-.485-.438 0-.847.167-1.227.499-.371.324-.633.747-.785 1.27V326h-1.57v-4.181c0-.694-.114-1.203-.342-1.527-.229-.323-.557-.485-.985-.485-.438 0-.847.162-1.227.485-.371.324-.637.747-.799 1.27V326h-1.57v-7.463h1.427v1.498c.295-.523.68-.922 1.156-1.198.485-.286 1.037-.428 1.655-.428.619 0 1.104.161 1.456.485.361.323.585.728.67 1.213.324-.552.719-.971 1.185-1.256.475-.295 1.018-.442 1.626-.442.438 0 .804.08 1.099.242.295.162.523.385.685.671.162.276.276.599.343.97.076.362.114.747.114 1.156V326ZM351.041 216v-7.505l-3.1 5.696h-.979l-3.114-5.696V216h-1.661v-10.53h1.779l3.486 6.437 3.485-6.437h1.78V216h-1.676Zm7.198.148c-.613 0-1.162-.104-1.646-.311a3.94 3.94 0 0 1-1.261-.89 4.093 4.093 0 0 1-.801-1.276 4.221 4.221 0 0 1-.282-1.542c0-.544.094-1.058.282-1.542.188-.485.455-.91.801-1.276a3.751 3.751 0 0 1 1.261-.875 4.034 4.034 0 0 1 1.646-.326c.603 0 1.147.108 1.631.326.495.208.915.499 1.261.875.356.366.628.791.816 1.276.188.484.282.998.282 1.542s-.094 1.058-.282 1.542c-.188.475-.46.9-.816 1.276a3.733 3.733 0 0 1-1.261.89 4.11 4.11 0 0 1-1.631.311Zm-2.314-4.004c0 .494.104.939.312 1.335.207.395.484.707.83.934a2.09 2.09 0 0 0 1.172.341c.425 0 .811-.114 1.157-.341.356-.237.638-.554.845-.949.208-.406.312-.85.312-1.335 0-.494-.104-.939-.312-1.335a2.41 2.41 0 0 0-.845-.934 2.003 2.003 0 0 0-1.157-.356c-.435 0-.826.119-1.172.356a2.578 2.578 0 0 0-.83.949c-.208.386-.312.831-.312 1.335ZM370.631 216H369v-4.346c0-.702-.129-1.226-.386-1.572-.257-.346-.618-.519-1.082-.519-.287 0-.584.079-.89.237a2.705 2.705 0 0 0-.816.653c-.237.267-.41.578-.519.934V216h-1.631v-10.827h1.631v4.627a3.238 3.238 0 0 1 1.216-1.231 3.192 3.192 0 0 1 1.661-.459c.485 0 .885.084 1.202.252.316.168.563.4.741.697.188.287.317.623.386 1.008.079.376.118.777.118 1.202V216Zm1.894 0v-7.757h1.632V216h-1.632Zm0-9.032v-1.795h1.632v1.795h-1.632Zm7.953 2.684c-.633.01-1.197.153-1.691.43a2.345 2.345 0 0 0-1.038 1.172V216h-1.632v-7.757h1.513v1.735a3.452 3.452 0 0 1 1.053-1.275c.435-.326.895-.504 1.379-.534h.238c.069 0 .128.005.178.015v1.468Zm.581 2.477c0-.742.148-1.414.445-2.017a3.742 3.742 0 0 1 1.246-1.454c.524-.365 1.127-.548 1.809-.548.594 0 1.127.153 1.602.459.485.307.86.688 1.127 1.142v-4.538h1.632v8.988c0 .188.034.321.104.4.069.079.182.124.341.134V216a4.865 4.865 0 0 1-.712.074 1.2 1.2 0 0 1-.786-.267.862.862 0 0 1-.327-.638l-.014-.578c-.297.494-.697.88-1.202 1.157-.504.267-1.028.4-1.572.4a3.538 3.538 0 0 1-1.483-.311 3.606 3.606 0 0 1-1.172-.875 4.355 4.355 0 0 1-.771-1.291 4.432 4.432 0 0 1-.267-1.542Zm6.229 1.083v-2.032a2.178 2.178 0 0 0-.534-.846 2.72 2.72 0 0 0-.815-.608 1.982 1.982 0 0 0-.89-.222c-.346 0-.663.074-.949.222-.277.149-.52.346-.727.594a2.796 2.796 0 0 0-.46.845 3.03 3.03 0 0 0-.163.994c0 .356.059.692.178 1.008.119.307.287.584.504.831.228.237.485.425.771.563.297.129.618.193.964.193.218 0 .435-.039.653-.118.227-.08.44-.188.638-.327.207-.138.38-.301.519-.489.148-.188.252-.391.311-.608Zm7.219 2.936a4.22 4.22 0 0 1-1.646-.311 4.06 4.06 0 0 1-1.261-.875 4.18 4.18 0 0 1-.831-1.276 4.241 4.241 0 0 1-.281-1.542c0-.732.168-1.399.504-2.002a3.866 3.866 0 0 1 1.409-1.469c.603-.375 1.31-.563 2.121-.563.811 0 1.508.188 2.091.563a3.818 3.818 0 0 1 1.379 1.454 4.014 4.014 0 0 1 .445 2.536h-6.214c.03.455.153.855.371 1.201.227.336.514.603.86.801.346.188.717.282 1.112.282a2.47 2.47 0 0 0 1.231-.326c.396-.218.663-.505.801-.861l1.394.401a3 3 0 0 1-.771 1.023 3.893 3.893 0 0 1-1.201.712 4.42 4.42 0 0 1-1.513.252Zm-2.329-4.568h4.687a2.32 2.32 0 0 0-.385-1.171 2.27 2.27 0 0 0-.846-.801 2.179 2.179 0 0 0-1.127-.297 2.306 2.306 0 0 0-1.958 1.098 2.42 2.42 0 0 0-.371 1.171Zm9.583 4.42-2.952-7.757h1.691l2.21 6.244 2.21-6.244h1.572L403.54 216h-1.779Zm9.368 0v-10.53h4.583c.475 0 .91.099 1.305.296.396.198.737.46 1.024.786.296.327.524.693.682 1.098.168.405.252.821.252 1.246 0 .464-.084.909-.252 1.335-.168.425-.41.791-.727 1.097a2.73 2.73 0 0 1-1.082.668L419.39 216h-1.868l-2.284-3.663h-2.448V216h-1.661Zm1.661-5.132h2.907c.307 0 .579-.089.816-.267.237-.178.425-.415.564-.712.138-.306.207-.637.207-.993 0-.366-.079-.692-.237-.979a1.98 1.98 0 0 0-.623-.712 1.365 1.365 0 0 0-.816-.267h-2.818v3.93Zm11.206 5.28a4.22 4.22 0 0 1-1.646-.311 4.06 4.06 0 0 1-1.261-.875 4.18 4.18 0 0 1-.831-1.276 4.241 4.241 0 0 1-.281-1.542c0-.732.168-1.399.504-2.002a3.866 3.866 0 0 1 1.409-1.469c.603-.375 1.31-.563 2.121-.563.811 0 1.508.188 2.091.563a3.818 3.818 0 0 1 1.379 1.454 4.014 4.014 0 0 1 .445 2.536h-6.214c.03.455.153.855.371 1.201.227.336.514.603.86.801.346.188.717.282 1.112.282a2.47 2.47 0 0 0 1.231-.326c.396-.218.663-.505.801-.861l1.394.401a3 3 0 0 1-.771 1.023 3.905 3.905 0 0 1-1.201.712 4.42 4.42 0 0 1-1.513.252Zm-2.329-4.568h4.687a2.33 2.33 0 0 0-.385-1.171 2.27 2.27 0 0 0-.846-.801 2.179 2.179 0 0 0-1.127-.297 2.306 2.306 0 0 0-1.958 1.098 2.42 2.42 0 0 0-.371 1.171Zm7.071 2.151c0-.495.138-.925.415-1.291.287-.375.678-.662 1.172-.86.494-.207 1.068-.311 1.72-.311.346 0 .697.025 1.053.074.366.049.688.128.964.237v-.489c0-.544-.163-.969-.489-1.276-.326-.306-.796-.459-1.409-.459-.435 0-.845.079-1.231.237a6.962 6.962 0 0 0-1.231.638l-.549-1.098a6.251 6.251 0 0 1 1.543-.771 5.355 5.355 0 0 1 1.646-.252c1.038 0 1.854.277 2.447.83.603.544.905 1.32.905 2.329v2.892c0 .188.03.321.089.4.069.079.183.124.341.134V216a3.527 3.527 0 0 1-.697.074c-.346 0-.608-.084-.786-.252a.974.974 0 0 1-.312-.593l-.044-.445a3.338 3.338 0 0 1-1.29 1.008 3.804 3.804 0 0 1-1.587.356c-.515 0-.974-.104-1.38-.311a2.463 2.463 0 0 1-.949-.875 2.288 2.288 0 0 1-.341-1.231Zm4.939.474c.118-.128.212-.257.282-.385a.74.74 0 0 0 .103-.341v-.89a4.224 4.224 0 0 0-.875-.238 4.774 4.774 0 0 0-.904-.089c-.594 0-1.078.119-1.454.356-.366.238-.549.564-.549.979 0 .228.06.445.178.653.129.208.307.376.534.504.238.129.529.193.875.193a2.59 2.59 0 0 0 1.024-.208 2.2 2.2 0 0 0 .786-.534Zm7.511 1.943a4.22 4.22 0 0 1-1.646-.311 3.94 3.94 0 0 1-1.261-.89 4.118 4.118 0 0 1-.83-1.29 4.23 4.23 0 0 1-.282-1.543c0-.732.163-1.399.489-2.002a3.943 3.943 0 0 1 1.394-1.454c.604-.365 1.316-.548 2.136-.548.791 0 1.478.178 2.062.534.593.346 1.028.81 1.305 1.394l-1.587.504a1.86 1.86 0 0 0-.756-.756 2.026 2.026 0 0 0-1.053-.282c-.436 0-.831.114-1.187.341a2.35 2.35 0 0 0-.831.92c-.197.385-.296.835-.296 1.349 0 .495.104.944.311 1.35.208.395.485.712.831.949a2.16 2.16 0 0 0 1.186.341c.267 0 .524-.044.772-.133.257-.099.479-.228.667-.386.188-.168.321-.351.4-.549l1.602.475c-.168.386-.42.727-.756 1.023a3.745 3.745 0 0 1-1.172.712 4.214 4.214 0 0 1-1.498.252Zm9.086-.548a5.265 5.265 0 0 1-1.231.43 3.569 3.569 0 0 1-.801.089c-.336 0-.648-.06-.934-.178a1.56 1.56 0 0 1-.698-.564c-.168-.267-.252-.608-.252-1.023v-4.85h-1.023v-1.261h1.023v-2.551h1.632v2.551h1.691v1.261h-1.691v4.331c.02.267.104.464.252.593a.89.89 0 0 0 .578.193c.228 0 .445-.04.653-.119.208-.079.361-.143.46-.193l.341 1.291Zm.7-1.454c.158.119.4.237.726.356.327.109.712.163 1.157.163.435 0 .786-.069 1.053-.207.277-.149.485-.366.623-.653.149-.297.247-.672.297-1.127.059-.455.089-.994.089-1.617v-5.591h1.676v5.354c0 .781-.045 1.498-.134 2.15-.079.653-.242 1.222-.489 1.706a2.54 2.54 0 0 1-1.113 1.098c-.484.257-1.137.385-1.957.385-.485 0-.915-.054-1.291-.163a3.608 3.608 0 0 1-1.038-.489l.401-1.365Zm10.285 2.002c-.652 0-1.27-.104-1.853-.311a4.033 4.033 0 0 1-1.498-.964l.608-1.098c.445.396.89.683 1.334.861.455.177.905.266 1.35.266.455 0 .826-.084 1.112-.252a.855.855 0 0 0 .431-.771c0-.247-.075-.43-.223-.549-.148-.118-.366-.222-.652-.311a25.396 25.396 0 0 0-1.009-.297 10.262 10.262 0 0 1-1.394-.519c-.376-.188-.658-.415-.846-.682-.187-.267-.281-.608-.281-1.023 0-.505.128-.935.385-1.291.257-.356.613-.628 1.068-.816.465-.187.999-.281 1.602-.281.564 0 1.083.089 1.557.267.485.168.91.435 1.276.801l-.697 1.082a3.597 3.597 0 0 0-1.068-.697 2.985 2.985 0 0 0-1.157-.222c-.237 0-.465.029-.682.089a1.1 1.1 0 0 0-.549.296c-.138.139-.208.337-.208.594 0 .207.06.375.178.504.119.128.297.237.534.326.238.089.529.188.875.297.603.178 1.118.356 1.543.534.425.168.751.39.979.667.237.267.356.638.356 1.112 0 .752-.282 1.34-.846 1.765-.554.416-1.295.623-2.225.623ZM448.623 115.269c0-.617.109-1.219.328-1.808a5.176 5.176 0 0 1 .954-1.623 4.61 4.61 0 0 1 1.552-1.168c.607-.294 1.295-.441 2.064-.441.911 0 1.699.209 2.364.627.664.408 1.158.935 1.481 1.58l-1.253.84c-.19-.408-.432-.731-.727-.968a2.489 2.489 0 0 0-.939-.498 3.564 3.564 0 0 0-.983-.143c-.531 0-.996.109-1.395.328a3.067 3.067 0 0 0-1.011.84 3.98 3.98 0 0 0-.612 1.181c-.133.437-.2.874-.2 1.31 0 .484.081.954.243 1.41.161.446.384.845.669 1.196.294.342.64.612 1.039.812.399.199.835.299 1.31.299.323 0 .66-.057 1.011-.171.351-.114.674-.29.968-.527.304-.247.541-.57.712-.968l1.324.754a3.15 3.15 0 0 1-.982 1.282c-.437.351-.93.617-1.481.797a5.074 5.074 0 0 1-1.609.271 4.306 4.306 0 0 1-1.951-.442 5.07 5.07 0 0 1-1.523-1.196 5.805 5.805 0 0 1-.997-1.68 5.316 5.316 0 0 1-.356-1.894Zm13.507 5.269c-.589 0-1.115-.1-1.581-.299a3.787 3.787 0 0 1-1.21-.855 3.938 3.938 0 0 1-.769-1.224 4.068 4.068 0 0 1-.27-1.481c0-.522.09-1.016.27-1.481a3.73 3.73 0 0 1 .769-1.224 3.597 3.597 0 0 1 1.21-.84 3.884 3.884 0 0 1 1.581-.314c.579 0 1.101.105 1.566.314a3.41 3.41 0 0 1 1.21.84c.342.351.603.759.783 1.224.181.465.271.959.271 1.481 0 .522-.09 1.016-.271 1.481-.18.455-.441.864-.783 1.224a3.579 3.579 0 0 1-1.21.855 3.943 3.943 0 0 1-1.566.299Zm-2.221-3.845c0 .475.099.902.299 1.282.199.379.465.678.797.897.332.218.707.327 1.125.327.408 0 .778-.109 1.11-.327a2.43 2.43 0 0 0 .812-.912c.199-.389.299-.816.299-1.281 0-.475-.1-.902-.299-1.281a2.312 2.312 0 0 0-.812-.897 1.917 1.917 0 0 0-1.11-.342 1.94 1.94 0 0 0-1.125.342 2.469 2.469 0 0 0-.797.911c-.2.37-.299.797-.299 1.281Zm6.97-.014c0-.712.143-1.357.427-1.936a3.593 3.593 0 0 1 1.196-1.396 2.96 2.96 0 0 1 1.737-.527c.57 0 1.082.148 1.538.442.465.294.826.66 1.082 1.096v-4.357h1.566v8.629c0 .18.034.308.1.384.066.076.176.119.328.128v1.253a4.55 4.55 0 0 1-.684.071c-.294 0-.546-.085-.755-.256a.83.83 0 0 1-.313-.612l-.014-.555a3.02 3.02 0 0 1-1.153 1.11 3.189 3.189 0 0 1-1.51.385c-.512 0-.987-.1-1.423-.299-.427-.2-.802-.48-1.125-.841a4.181 4.181 0 0 1-.741-1.238 4.281 4.281 0 0 1-.256-1.481Zm5.98 1.039v-1.95a2.1 2.1 0 0 0-.512-.812 2.612 2.612 0 0 0-.783-.584 1.903 1.903 0 0 0-.855-.213c-.332 0-.636.071-.911.213a2.384 2.384 0 0 0-.698.57c-.19.237-.337.508-.441.812a2.917 2.917 0 0 0 .014 1.922c.114.294.275.56.484.797.219.228.465.408.741.541.284.123.593.185.925.185.209 0 .418-.038.627-.114.218-.076.422-.18.612-.313a1.98 1.98 0 0 0 .498-.47c.143-.18.242-.375.299-.584Zm6.93 2.82c-.579 0-1.106-.1-1.58-.299a3.897 3.897 0 0 1-1.211-.841 4.008 4.008 0 0 1-.797-1.224 4.068 4.068 0 0 1-.27-1.481c0-.702.161-1.343.484-1.922a3.702 3.702 0 0 1 1.352-1.409c.579-.361 1.258-.542 2.036-.542.779 0 1.448.181 2.008.542a3.663 3.663 0 0 1 1.324 1.395 3.863 3.863 0 0 1 .427 2.435h-5.966c.029.436.148.821.356 1.153.219.323.494.579.826.769.332.18.688.27 1.068.27.418 0 .812-.104 1.182-.313.38-.209.636-.484.769-.826l1.338.385a2.89 2.89 0 0 1-.74.982 3.725 3.725 0 0 1-1.154.683c-.446.162-.93.243-1.452.243Zm-2.235-4.386h4.499a2.234 2.234 0 0 0-.37-1.125 2.172 2.172 0 0 0-.812-.768 2.09 2.09 0 0 0-1.082-.285c-.389 0-.75.095-1.082.285a2.2 2.2 0 0 0-.797.768 2.312 2.312 0 0 0-.356 1.125Zm14.133-5.823h1.495l1.253 3.431 1.267-3.431h1.495l-1.737 4.499 1.509 3.716 3.147-8.258h1.751l-4.143 10.109h-1.381l-1.894-4.528-1.908 4.528h-1.395l-4.129-10.109h1.737l3.161 8.258 1.509-3.716-1.737-4.499Zm11.174 10.066v-7.446h1.566v7.446h-1.566Zm0-8.671v-1.723h1.566v1.723h-1.566Zm7.592 8.287a5.692 5.692 0 0 1-.499.213 4.922 4.922 0 0 1-.683.2 3.407 3.407 0 0 1-.769.085 2.32 2.32 0 0 1-.897-.171 1.493 1.493 0 0 1-.669-.541c-.162-.256-.242-.584-.242-.982v-4.656h-.983v-1.21h.983V110.5h1.566v2.449h1.623v1.21h-1.623v4.157c.019.257.1.447.242.57a.854.854 0 0 0 .555.185c.218 0 .427-.038.627-.114.199-.076.346-.138.441-.185l.328 1.239Zm7.762.384h-1.566v-4.172c0-.674-.124-1.177-.37-1.509-.247-.332-.594-.498-1.04-.498-.275 0-.56.076-.854.228a2.58 2.58 0 0 0-.783.626 2.38 2.38 0 0 0-.499.897v4.428h-1.566v-10.394h1.566v4.443a3.106 3.106 0 0 1 1.168-1.182 3.064 3.064 0 0 1 1.595-.442c.465 0 .849.081 1.153.243.304.161.541.384.712.669.18.275.304.598.37.968.076.361.114.745.114 1.153v4.542Zm14.035 0v-7.204l-2.976 5.467h-.939l-2.99-5.467v7.204h-1.595v-10.109h1.709l3.346 6.179 3.346-6.179h1.708v10.109h-1.609Zm6.91.143c-.588 0-1.115-.1-1.58-.299a3.776 3.776 0 0 1-1.21-.855 3.901 3.901 0 0 1-1.04-2.705c0-.522.09-1.016.271-1.481.18-.465.436-.873.769-1.224a3.587 3.587 0 0 1 1.21-.84 3.88 3.88 0 0 1 1.58-.314c.579 0 1.101.105 1.567.314.474.199.878.479 1.21.84.342.351.603.759.783 1.224.18.465.27.959.27 1.481 0 .522-.09 1.016-.27 1.481-.18.455-.441.864-.783 1.224a3.589 3.589 0 0 1-1.21.855 3.951 3.951 0 0 1-1.567.299Zm-2.221-3.845c0 .475.1.902.299 1.282.2.379.465.678.798.897.332.218.707.327 1.124.327a1.98 1.98 0 0 0 1.111-.327c.342-.228.612-.532.812-.912.199-.389.299-.816.299-1.281 0-.475-.1-.902-.299-1.281a2.32 2.32 0 0 0-.812-.897 1.917 1.917 0 0 0-1.111-.342 1.94 1.94 0 0 0-1.124.342 2.471 2.471 0 0 0-.798.911c-.199.37-.299.797-.299 1.281Zm6.899 1.524c0-.475.133-.888.399-1.239.275-.361.65-.636 1.125-.826.475-.199 1.025-.299 1.652-.299.332 0 .669.024 1.01.071.352.048.66.124.926.228v-.47c0-.522-.157-.93-.47-1.224-.313-.294-.764-.442-1.353-.442-.417 0-.811.076-1.181.228a6.78 6.78 0 0 0-1.182.613l-.527-1.054a5.994 5.994 0 0 1 1.481-.74 5.124 5.124 0 0 1 1.58-.243c.997 0 1.78.266 2.35.798.579.522.868 1.267.868 2.235v2.777c0 .18.029.308.086.384.066.076.175.119.327.128v1.253a3.197 3.197 0 0 1-.669.071c-.332 0-.584-.08-.755-.242a.933.933 0 0 1-.299-.569l-.042-.427a3.22 3.22 0 0 1-1.239.968 3.66 3.66 0 0 1-1.524.342c-.493 0-.935-.1-1.324-.299a2.359 2.359 0 0 1-.911-.841 2.194 2.194 0 0 1-.328-1.181Zm4.742.455a1.78 1.78 0 0 0 .27-.37.7.7 0 0 0 .1-.327v-.855a4.06 4.06 0 0 0-.84-.227 4.562 4.562 0 0 0-.869-.086c-.569 0-1.034.114-1.395.342-.351.228-.527.541-.527.94 0 .218.057.427.171.626.123.199.294.361.513.484.227.124.508.185.84.185.341 0 .669-.066.982-.199.313-.133.565-.304.755-.513Zm6.485 1.866c-.627 0-1.22-.1-1.78-.299a3.87 3.87 0 0 1-1.438-.926l.584-1.054c.427.38.854.655 1.281.826.437.171.868.257 1.296.257.436 0 .792-.081 1.067-.243a.818.818 0 0 0 .413-.74c0-.237-.071-.413-.213-.527-.143-.114-.351-.213-.627-.299a23.81 23.81 0 0 0-.968-.284 9.914 9.914 0 0 1-1.338-.499c-.361-.18-.631-.398-.812-.655-.18-.256-.27-.584-.27-.982 0-.484.123-.897.37-1.239a2.316 2.316 0 0 1 1.025-.783c.446-.18.959-.271 1.538-.271.541 0 1.039.086 1.495.257.465.161.873.417 1.224.769l-.669 1.039a3.44 3.44 0 0 0-1.025-.669 2.85 2.85 0 0 0-1.111-.214c-.228 0-.446.029-.655.086a1.057 1.057 0 0 0-.526.284c-.133.133-.2.323-.2.57 0 .199.057.361.171.484.114.123.285.228.513.313.227.086.507.181.84.285.579.171 1.072.342 1.48.513.409.161.722.375.94.64.228.257.342.613.342 1.068 0 .722-.271 1.286-.812 1.695-.531.398-1.243.598-2.135.598Zm11.023-.143h-1.566v-4.172c0-.674-.124-1.177-.37-1.509-.247-.332-.594-.498-1.04-.498-.275 0-.56.076-.854.228a2.58 2.58 0 0 0-.783.626 2.38 2.38 0 0 0-.499.897v4.428h-1.566v-10.394h1.566v4.443a3.106 3.106 0 0 1 1.168-1.182 3.064 3.064 0 0 1 1.595-.442c.465 0 .849.081 1.153.243.304.161.541.384.712.669.18.275.304.598.37.968.076.361.114.745.114 1.153v4.542Z"/><g filter="url(#b)"><path fill="#AAF" d="m170.347 374.731 3.425-3.425-3.425-3.425-3.425 3.425 3.425 3.425Zm-3.62-34a3.164 3.164 0 1 0 6.328 0 3.164 3.164 0 0 0-6.328 0Zm4.213 30.575c0-1.008-.304-20.816-.456-30.584l-1.187.018c.153 9.78.457 29.57.457 30.566h1.186Z"/><circle cx="169.89" cy="340.731" r="5.636" stroke="#AAF" stroke-width=".593"/></g><g filter="url(#c)"><path fill="#AAF" d="m403.499 262.607 3.425-3.425-3.425-3.426-3.425 3.426 3.425 3.425Zm-3.62-34.001a3.164 3.164 0 1 0 6.328 0 3.164 3.164 0 0 0-6.328 0Zm4.214 30.576c0-1.009-.305-20.816-.457-30.585l-1.186.018c.152 9.78.456 29.57.456 30.567h1.187Z"/><circle cx="403.042" cy="228.606" r="5.636" stroke="#AAF" stroke-width=".593"/></g><g filter="url(#d)"><path fill="#AAF" d="m503.283 153.185 2.569-2.569-2.569-2.569-2.569 2.569 2.569 2.569Zm-2.711-25.195a2.373 2.373 0 1 0 4.746 0 2.373 2.373 0 0 0-4.746 0Zm3.156 22.626c0-.746-.225-15.404-.338-22.633l-.89.014c.113 7.237.338 21.882.338 22.619h.89Z"/><circle cx="502.945" cy="127.99" r="4.093" stroke="#AAF" stroke-width=".593"/></g><g filter="url(#e)"><path fill="#2B2CFF" d="M32.089 379.598c-10.478 1.983-23.481 5.548-28.673 7.083L2 439.805c19.823-16.646 121.218-29.306 133.452-30.458 45.118-4.248 136.637 1.062 151.858 0 12.177-.85 94.042-2.243 133.452-2.833 43.068-.119 132.815-11.404 147.257-55.604 18.053-55.249-70.797-74.727-76.814-79.331-4.814-3.684-80.826-18.535-118.231-25.5-44.72-4.604-132.248-21.533-124.602-52.416 9.558-38.603 89.204-36.478 98.762-37.541 9.557-1.062 76.46 2.834 100.885 2.834 18.407 2.266 78.938 2.361 106.903 2.125 38.82.59 135.504-1.913 211.682-16.646 72.495-20.966 33.982-51.235 5.663-63.749-4.837-2.951-18.336-9.916-33.628-14.166-57.77-24.933-9.204-34 22.301-35.416l52.743-2.833c5.428 0 19.823-.78 33.983-3.896 14.159-3.117 16.755-5.549 16.283-6.375-4.602 4.604-24.071 4.25-32.566 6.375-6.797 1.7-34.927 2.125-48.142 2.125l-27.611 1.77c-2.006.119-9.982.85-25.841 2.834-44.46 8.5-20.885 27.152-3.54 35.416 1.534.826 9.983 4.817 31.505 14.166 69.381 34.354 21.239 51.708-8.496 58.437-29.734 6.729-137.345 7.437-148.319 8.5-8.778.85-83.894-2.007-120.354-3.542-18.643-1.535-63.434-5.1-93.451-7.083-30.018-1.983-65.133-.827-78.939 0-34.336 2.125-103.717 16.504-106.549 57.02-2.831 40.516 64.425 64.103 98.408 70.832l88.85 17.353c20.767 2.598 70.017 12.184 100.885 29.75 38.584 21.958 5.663 45.332-3.54 48.52-6.797 6.516-62.301 9.562-89.204 10.27h-84.248s-66.376-3.187-94.159-4.249c-27.784-1.063-43.407-.846-43.407-.846-11.092 0-42.257 1.908-42.257 1.908s-30.679 1.889-43.894 3.188c-14.632 2.125-46.514 6.87-56.991 8.854Z"/></g><g filter="url(#f)"><path stroke="#fff" stroke-dasharray="23.73 23.73" stroke-width="1.483" d="M42.934 401.54c51.311-12.202 138.545-23.295 273.951-11.581 135.407 11.713 210.091-20.485 223.79-38.846 10.332-17.431-7.377-60.934-126.067-81.573-118.689-20.638-120.485-22.401-140.305-28.772-28.558-9.181-69.865-35.749-35.595-66.148 34.269-30.4 104.214-31.654 140.898-27.587 69.537 4.184 204.08 6.229 241.455 6.229 24.518 0 80.602-4.137 101.15-6.229l50.427-8.305"/></g><defs><filter id="a" width="21.187" height="45.132" x="9.107" y="386.081" color-interpolation-filters="sRGB" filterUnits="userSpaceOnUse"><feFlood flood-opacity="0" result="BackgroundImageFix"/><feColorMatrix in="SourceAlpha" result="hardAlpha" values="0 0 0 0 0 0 0 0 0 0 0 0 0 0 0 0 0 0 127 0"/><feOffset dy="2.373"/><feGaussianBlur stdDeviation="1.187"/><feComposite in2="hardAlpha" operator="out"/><feColorMatrix values="0 0 0 0 0 0 0 0 0 0 0 0 0 0 0 0 0 0 0.25 0"/><feBlend in2="BackgroundImageFix" result="effect1_dropShadow_417_2497"/><feBlend in="SourceGraphic" in2="effect1_dropShadow_417_2497" result="shape"/></filter><filter id="b" width="23.728" height="51.798" x="158.024" y="328.866" color-interpolation-filters="sRGB" filterUnits="userSpaceOnUse"><feFlood flood-opacity="0" result="BackgroundImageFix"/><feColorMatrix in="SourceAlpha" result="hardAlpha" values="0 0 0 0 0 0 0 0 0 0 0 0 0 0 0 0 0 0 127 0"/><feOffset/><feGaussianBlur stdDeviation="2.966"/><feComposite in2="hardAlpha" operator="out"/><feColorMatrix values="0 0 0 0 0.0658333 0 0 0 0 0.8879 0 0 0 0 1 0 0 0 0.85 0"/><feBlend in2="BackgroundImageFix" result="effect1_dropShadow_417_2497"/><feBlend in="SourceGraphic" in2="effect1_dropShadow_417_2497" result="shape"/></filter><filter id="c" width="23.728" height="51.799" x="391.177" y="216.741" color-interpolation-filters="sRGB" filterUnits="userSpaceOnUse"><feFlood flood-opacity="0" result="BackgroundImageFix"/><feColorMatrix in="SourceAlpha" result="hardAlpha" values="0 0 0 0 0 0 0 0 0 0 0 0 0 0 0 0 0 0 127 0"/><feOffset/><feGaussianBlur stdDeviation="2.966"/><feComposite in2="hardAlpha" operator="out"/><feColorMatrix values="0 0 0 0 0.0658333 0 0 0 0 0.8879 0 0 0 0 1 0 0 0 0.85 0"/><feBlend in2="BackgroundImageFix" result="effect1_dropShadow_417_2497"/><feBlend in="SourceGraphic" in2="effect1_dropShadow_417_2497" result="shape"/></filter><filter id="d" width="20.646" height="41.45" x="492.622" y="117.667" color-interpolation-filters="sRGB" filterUnits="userSpaceOnUse"><feFlood flood-opacity="0" result="BackgroundImageFix"/><feColorMatrix in="SourceAlpha" result="hardAlpha" values="0 0 0 0 0 0 0 0 0 0 0 0 0 0 0 0 0 0 127 0"/><feOffset/><feGaussianBlur stdDeviation="2.966"/><feComposite in2="hardAlpha" operator="out"/><feColorMatrix values="0 0 0 0 0.0658333 0 0 0 0 0.8879 0 0 0 0 1 0 0 0 0.85 0"/><feBlend in2="BackgroundImageFix" result="effect1_dropShadow_417_2497"/><feBlend in="SourceGraphic" in2="effect1_dropShadow_417_2497" result="shape"/></filter><filter id="e" width="921.326" height="481.13" x="-27.663" y=".202" color-interpolation-filters="sRGB" filterUnits="userSpaceOnUse"><feFlood flood-opacity="0" result="BackgroundImageFix"/><feColorMatrix in="SourceAlpha" result="hardAlpha" values="0 0 0 0 0 0 0 0 0 0 0 0 0 0 0 0 0 0 127 0"/><feOffset dy="11.865"/><feGaussianBlur stdDeviation="14.831"/><feComposite in2="hardAlpha" operator="out"/><feColorMatrix values="0 0 0 0 0.317647 0 0 0 0 0.321569 0 0 0 0 1 0 0 0 0.45 0"/><feBlend in2="BackgroundImageFix" result="effect1_dropShadow_417_2497"/><feBlend in="SourceGraphic" in2="effect1_dropShadow_417_2497" result="shape"/></filter><filter id="f" width="734.742" height="269.011" x="40.389" y="137.996" color-interpolation-filters="sRGB" filterUnits="userSpaceOnUse"><feFlood flood-opacity="0" result="BackgroundImageFix"/><feColorMatrix in="SourceAlpha" result="hardAlpha" values="0 0 0 0 0 0 0 0 0 0 0 0 0 0 0 0 0 0 127 0"/><feOffset dy="2.373"/><feGaussianBlur stdDeviation="1.187"/><feComposite in2="hardAlpha" operator="out"/><feColorMatrix values="0 0 0 0 0 0 0 0 0 0 0 0 0 0 0 0 0 0 0.25 0"/><feBlend in2="BackgroundImageFix" result="effect1_dropShadow_417_2497"/><feBlend in="SourceGraphic" in2="effect1_dropShadow_417_2497" result="shape"/></filter></defs></svg>