<svg xmlns="http://www.w3.org/2000/svg" width="43" height="43" fill="none"><path fill="url(#a)" stroke="url(#b)" stroke-width=".4" d="M42.6 21.401c0 11.709-9.492 21.2-21.2 21.2-11.708 0-21.2-9.491-21.2-21.2S9.692.2 21.4.2c11.708 0 21.2 9.492 21.2 21.201Z"/><g stroke="#CBC7C7" stroke-linecap="round" stroke-linejoin="round" stroke-width="1.5" clip-path="url(#c)"><path d="M21.4 24.611a3.21 3.21 0 1 0 0-6.42 3.21 3.21 0 0 0 0 6.42Z"/><path d="M29.318 24.611a1.766 1.766 0 0 0 .353 1.948l.064.064a2.14 2.14 0 1 1-3.028 3.028l-.064-.064a1.766 1.766 0 0 0-1.948-.353 1.766 1.766 0 0 0-1.07 1.615v.182a2.14 2.14 0 0 1-4.28 0v-.096a1.765 1.765 0 0 0-1.155-1.616 1.766 1.766 0 0 0-1.948.353l-.064.065a2.14 2.14 0 1 1-3.028-3.029l.064-.064a1.766 1.766 0 0 0 .354-1.947 1.766 1.766 0 0 0-1.616-1.07h-.182a2.14 2.14 0 1 1 0-4.28h.096a1.766 1.766 0 0 0 1.616-1.156 1.766 1.766 0 0 0-.353-1.948l-.064-.064a2.14 2.14 0 0 1 .694-3.493 2.14 2.14 0 0 1 2.334.465l.064.064a1.765 1.765 0 0 0 1.947.353h.086a1.765 1.765 0 0 0 1.07-1.616v-.181a2.14 2.14 0 1 1 4.28 0v.096a1.766 1.766 0 0 0 1.07 1.616 1.766 1.766 0 0 0 1.947-.354l.065-.064a2.139 2.139 0 0 1 3.492.695 2.14 2.14 0 0 1-.464 2.333l-.065.065a1.765 1.765 0 0 0-.353 1.947v.086a1.765 1.765 0 0 0 1.616 1.07h.182a2.14 2.14 0 1 1 0 4.28h-.096a1.765 1.765 0 0 0-1.616 1.07Z"/></g><defs><linearGradient id="a" x1="3.21" x2="42.802" y1="-4.815" y2="49.755" gradientUnits="userSpaceOnUse"><stop stop-color="#090707"/><stop offset="0" stop-opacity=".58"/><stop offset="1" stop-color="#696464" stop-opacity=".46"/></linearGradient><linearGradient id="b" x1="9.095" x2="42.802" y1="2.14" y2="38.52" gradientUnits="userSpaceOnUse"><stop stop-color="#7D3CFF" stop-opacity=".65"/><stop offset="1" stop-color="#323232" stop-opacity=".85"/></linearGradient><clipPath id="c"><path fill="#fff" d="M8.56 8.56h25.68v25.681H8.56z"/></clipPath></defs></svg>